<svg width="148" height="143" viewBox="0 0 148 143" fill="none" xmlns="http://www.w3.org/2000/svg"><path d="M76.675 68.41h38.445l12.367 12.374c3.636-3.685 5.883-8.713 5.883-14.275V20.323c0-5.376-2.108-10.243-5.512-13.88l-15.077 15.085-36.083-.648H45.317L30.61 6.164a20.25 20.25 0 0 0-5.766 14.16v46.185c0 5.515 2.223 10.52 5.79 14.205l12.274-12.282h33.767z" fill="#A4D8E6"/><path d="M76.675 68.41h38.445l12.367 12.374c3.636-3.685 5.883-8.713 5.883-14.275V20.323c0-5.376-2.108-10.243-5.512-13.88l-15.077 15.085-36.083-.648H45.317L30.61 6.164a20.25 20.25 0 0 0-5.766 14.16v46.185c0 5.515 2.223 10.52 5.79 14.205l12.274-12.282h33.767z" fill="#2D58D6"/><path d="M117.344.463A20.5 20.5 0 0 0 113.013 0H45.156A20.2 20.2 0 0 0 30.61 6.164L45.318 20.88h31.358l36.083.649 15.077-15.087A20.1 20.1 0 0 0 117.344.463" fill="#638BFF"/><path d="M45.156 86.832h67.858a20.26 20.26 0 0 0 14.452-6.048l-12.368-12.375H42.933L30.658 80.691c3.683 3.778 8.824 6.141 14.498 6.141" fill="#A4D8E6"/><path d="M79.059 20.926V68.41h36.059l12.368 12.375c3.636-3.684 5.882-8.713 5.882-14.275V20.323c0-5.376-2.107-10.242-5.512-13.88l-15.077 15.086z" fill="#5FB0CF"/><path d="M79.059 20.926V68.41h36.059l12.368 12.375c3.636-3.684 5.882-8.713 5.882-14.275V20.323c0-5.376-2.107-10.242-5.512-13.88l-15.077 15.086z" fill="#2D58D6"/><path d="m112.756 21.529 15.077-15.087A20.1 20.1 0 0 0 117.342.463 20.5 20.5 0 0 0 113.011 0H79.059v20.926z" fill="#183A9B"/><path d="m127.462 80.784-12.367-12.375H79.059v18.423h33.975c5.628 0 10.746-2.317 14.428-6.048" fill="#5FB0CF"/><path d="M45.158 86.833h67.858a20.25 20.25 0 0 0 14.451-6.049L115.1 68.41H42.935L30.66 80.692c3.683 3.777 8.824 6.14 14.498 6.14" fill="#E6F2F0"/><path d="M45.158 86.833h67.858a20.25 20.25 0 0 0 14.451-6.049L115.1 68.41H42.935L30.66 80.692c3.683 3.777 8.824 6.14 14.498 6.14" fill="#638BFF"/><path d="M117.712 66.509a4.68 4.68 0 0 1-4.678 4.681H45.176c-2.594 0-4.701-2.109-4.701-4.681V20.323a4.706 4.706 0 0 1 4.701-4.704h67.858c2.594 0 4.678 2.109 4.678 4.704z" fill="#436ADA"/><path d="M113.036 15.62H79.084v55.57h33.929a4.68 4.68 0 0 0 4.678-4.681V20.323a4.667 4.667 0 0 0-4.655-4.704" fill="#B9CBFF"/><path d="M46.835 33.377a32 32 0 0 1 2.548-.348 28 28 0 0 1 2.756-.116c.95 0 1.922.07 2.872.232.972.162 1.83.463 2.594.927q1.146.695 1.876 1.946c.486.835.718 1.924.718 3.268 0 1.205-.209 2.248-.626 3.082s-.973 1.53-1.69 2.063a6.5 6.5 0 0 1-2.386 1.158c-.88.232-1.806.348-2.756.348h-.44c-.208 0-.417 0-.625-.023-.232 0-.44-.023-.649-.047-.208-.023-.37-.046-.463-.046v6.65H46.79V33.378zm5.605 2.78c-.37 0-.718.024-1.042.047s-.602.07-.788.093v6.256c.07.024.186.047.325.047.139.023.3.023.463.046.162 0 .324.023.486.023h.348c.486 0 .995-.046 1.482-.139.486-.093.926-.255 1.297-.51.393-.255.694-.602.926-1.042q.348-.66.348-1.738c0-.603-.116-1.113-.325-1.507a2.6 2.6 0 0 0-.857-.95 3.4 3.4 0 0 0-1.227-.486 7.5 7.5 0 0 0-1.436-.14m9.214 6.652c0-3.222.718-5.678 2.131-7.416s3.428-2.596 6.045-2.596c1.366 0 2.57.232 3.613.719 1.019.486 1.876 1.158 2.547 2.04.672.88 1.181 1.946 1.506 3.174q.486 1.842.486 4.102c0 3.22-.718 5.677-2.13 7.415-1.414 1.738-3.428 2.596-6.046 2.596-1.39 0-2.593-.232-3.636-.719-1.019-.486-1.876-1.158-2.547-2.039-.672-.88-1.158-1.947-1.505-3.175-.302-1.228-.464-2.595-.464-4.101m3.96 0c0 .973.093 1.877.255 2.688.162.81.417 1.506.765 2.108.347.58.764 1.043 1.297 1.368.532.324 1.157.486 1.899.486 1.343 0 2.385-.51 3.103-1.575.741-1.043 1.089-2.735 1.089-5.099 0-.927-.07-1.807-.232-2.618s-.394-1.53-.741-2.132a3.8 3.8 0 0 0-1.297-1.414c-.533-.348-1.181-.51-1.945-.51-1.344 0-2.386.533-3.104 1.6-.718 1.112-1.088 2.803-1.088 5.098" fill="#fff"/><path d="M90.232 47.878c0-.58-.209-1.066-.649-1.437-.44-.37-.973-.695-1.621-.997-.649-.3-1.367-.602-2.13-.927a12 12 0 0 1-2.131-1.181 6.1 6.1 0 0 1-1.622-1.738c-.44-.696-.648-1.6-.648-2.665 0-.927.162-1.738.463-2.434.301-.695.764-1.251 1.343-1.715.58-.463 1.25-.787 2.062-1.02.81-.23 1.667-.324 2.64-.324 1.111 0 2.177.093 3.173.279.995.185 1.806.486 2.455.834l-1.182 3.175q-.59-.383-1.806-.696c-.81-.208-1.69-.324-2.617-.324-.88 0-1.552.162-2.015.533-.463.348-.695.811-.695 1.414 0 .556.209.996.649 1.367.44.37.972.718 1.62 1.02.65.324 1.367.648 2.108.973.765.324 1.46.741 2.131 1.205a5.8 5.8 0 0 1 1.621 1.738c.44.695.649 1.553.649 2.572s-.162 1.924-.51 2.665c-.347.742-.81 1.367-1.436 1.854-.602.487-1.366.858-2.223 1.09-.88.231-1.83.37-2.872.37-1.366 0-2.594-.139-3.636-.394s-1.806-.51-2.316-.765l1.204-3.22c.209.115.464.23.788.37.324.116.672.255 1.088.347.394.116.834.21 1.274.279s.903.116 1.39.116q1.667 0 2.57-.557c.58-.463.88-1.043.88-1.807m19.94-10.754h-5.628v15.92h-3.751v-15.92h-5.651v-3.36h15.03z" fill="#3354B4"/><path d="M31.203 130.003s0-4.032 7.735-6.465c2.325-.725 4.026-1.153 5.268-1.397 1.484-.292 3.964-1.849 4.704-3.168 1.352-2.405 3.783-5.797 7.747-8.459 3.08-2.086 3.983-5.376 1.297-7.717s-8.43 2.642-16.374 9.756c0 0-1.344.858 1.482-4.24 2.825-5.122 15.1-29.362 15.1-29.362s3.613-5.608-.764-7.81c-3.984-2.039-5.28 2.318-6.439 4.612-1.18 2.294-10.19 19.93-10.19 19.93s-1.112.51-1.065-.556l5.42-10.637s1.921-3.384-.904-4.867c-3.335-1.76-4.54.371-5.28 1.831L33.496 92.16s-1.227.835-1.181-.602l4.77-9.386s1.298-2.317-1.69-3.846c-2.988-1.53-4.076.81-4.076.81l-4.933 9.71s-.788.65-.996-.51l3.335-6.558s.857-2.132-2.061-3.545c-2.941-1.39-4.053.904-4.053.904l-8.177 25.143s-2.964 5.284-1.065 8.273c1.899 2.99-1.9 7.416-1.9 7.416z" fill="#fff"/><path d="m11.236 111.638-3.55 5.895 24.616 14.845 3.551-5.895z" fill="#B9CBFF"/><path d="M5.99 115.529 0 125.473l28.882 17.417 5.989-9.944z" fill="#183A9B"/><path d="m20.41 124.262-5.988 9.944 14.44 8.706 5.989-9.944z" fill="#09277D"/><path d="m23.557 119.055-3.55 5.896 12.3 7.413 3.55-5.895z" fill="#9CB5FF"/><path d="M69.018 65.652c-.255-.116-.463-.325-.625-.603-1.552-2.804-4.609-4.38-7.805-3.963-.81.093-1.552-.463-1.644-1.274-.093-.811.463-1.553 1.273-1.645 4.4-.557 8.616 1.575 10.746 5.468a1.457 1.457 0 0 1-.578 1.993 1.43 1.43 0 0 1-1.367.024" fill="#09277D"/><path d="M73.678 63.01a1.56 1.56 0 0 1-.626-.602c-2.594-4.705-7.712-7.323-13.062-6.628-.81.093-1.551-.463-1.644-1.275-.093-.81.463-1.552 1.274-1.645 6.53-.834 12.807 2.364 16.003 8.134a1.457 1.457 0 0 1-.579 1.993c-.44.255-.95.232-1.366.023" fill="#09277D"/><path d="M78.306 60.368a1.56 1.56 0 0 1-.625-.603C74.045 53.161 66.865 49.5 59.385 50.45c-.81.092-1.552-.464-1.645-1.275s.464-1.553 1.274-1.645c8.685-1.113 17.023 3.128 21.238 10.799.393.718.139 1.622-.58 1.993-.44.278-.949.255-1.366.046" fill="#09277D"/><path d="M108.771 106.275q0 .036 0 0l.023-3.661v-.046l.069-6.72v.022l.024-3.823.046-6.443c.069-5.585 8.731-10.057 19.361-9.964 10.654.092 19.246 4.704 19.2 10.289l-.047 6.743v.024l-.046 5.098v.023l-.046 3.522v-.023l-.023 5.284-.047 6.743c-.069 5.609-8.708 8.668-19.384 8.598-10.631-.093-19.246-3.314-19.2-8.899z" fill="#FFA31A"/><path d="M147.499 85.905c-.047 5.608-8.709 10.081-19.362 9.965-10.653-.07-19.246-4.681-19.199-10.29.069-5.584 8.731-10.056 19.361-9.964 10.677.093 19.269 4.704 19.2 10.29" fill="#FFD35C"/><path d="M143.491 85.882c-.023 4.45-6.902 7.972-15.332 7.902-8.43-.092-15.239-3.73-15.216-8.157.047-4.45 6.925-7.948 15.355-7.879 8.43.046 15.239 3.708 15.193 8.134" fill="#FFA31A"/><path d="M138.85 85.836c-.023 3.082-4.817 5.538-10.676 5.492-5.86-.046-10.607-2.572-10.584-5.677.023-3.083 4.817-5.539 10.677-5.493 5.882.07 10.607 2.596 10.583 5.678" fill="#FFD35C"/><path d="M127.251 89.427a14 14 0 0 1-1.598-.139 9 9 0 0 1-1.042-.231l.649-1.09c.185.07.44.163.787.209.347.07.718.093 1.181.139l.023-2.225a7 7 0 0 1-.972-.347 14 14 0 0 1-.857-.417c-.255-.186-.464-.348-.603-.603-.185-.232-.231-.487-.231-.788 0-.533.255-.95.741-1.251.486-.302 1.135-.51 1.969-.603v-.927l1.829.023v.904c.44.023.857.07 1.181.116.348.046.695.116.973.185l-.648 1.043a8 8 0 0 0-.672-.139c-.255-.046-.556-.07-.88-.116l-.023 2.017c.347.092.671.231.996.347s.625.255.88.464q.381.243.625.556c.185.232.255.463.255.764-.023.58-.255 1.043-.765 1.368-.486.324-1.181.556-2.038.649v.95h-1.829zm.857-6.257c-.463.047-.787.116-.973.255-.162.14-.254.325-.254.464 0 .208.115.417.347.556s.533.278.857.417zm.185 5.145c.417-.046.718-.116.927-.301.208-.162.301-.348.301-.58s-.093-.417-.324-.579a4.5 4.5 0 0 0-.88-.417zm-.323 28.273c-10.653-.093-19.245-4.705-19.199-10.313l-.07 6.744c-.046 5.585 8.569 8.806 19.2 8.899 10.653.092 19.315-2.966 19.384-8.598l.047-6.72c-.047 5.608-8.708 10.08-19.362 9.988" fill="#FFA31A"/><path d="M128.019 111.257c-10.653-.092-19.245-4.704-19.199-10.289l-.046 5.307c-.047 5.608 8.546 10.197 19.199 10.312 10.653.093 19.315-4.379 19.361-9.987v1.413l.047-6.72c-.047 5.608-8.708 10.057-19.362 9.964" fill="#E66409"/><path d="M128.064 106.136c-10.63-.093-19.246-4.704-19.176-10.29l-.07 6.721v.023l.024-1.622c-.047 5.585 8.545 10.197 19.199 10.289 10.653.093 19.315-4.356 19.361-9.964l-.023 1.599.07-6.744c-.093 5.631-8.732 10.081-19.385 9.988" fill="#FFA31A"/><path d="M128.09 100.992c-10.654-.07-19.223-4.705-19.176-10.29l-.047 5.145c-.023 5.585 8.546 10.197 19.176 10.289 10.654.093 19.316-4.356 19.362-9.987v1.622-.023l.046-6.744c-.023 5.631-8.708 10.104-19.361 9.988" fill="#FF700A"/><path d="M128.133 95.87c-10.654-.07-19.246-4.68-19.2-10.289l-.023 5.121c-.046 5.609 8.546 10.22 19.177 10.29 10.653.092 19.315-4.357 19.361-9.988v1.645-.023l.046-6.744c-.023 5.632-8.708 10.104-19.361 9.988" fill="#FFA31A"/><path d="M93.672 94.92c-10.492-.116-19.014 4.519-19.315 10.336 0 .092-.047.185-.047.255l-.046 5.445c-.046 5.956 8.546 10.869 19.2 10.938 10.653.093 19.314-4.634 19.361-10.59l-.023 1.738v-.023l.046-7.184c.069-5.91-8.523-10.822-19.176-10.915" fill="url(#a)"/><path d="M112.873 105.858c-.046 5.956-8.731 10.706-19.361 10.614-10.63-.093-19.246-4.983-19.2-10.962.047-5.932 8.732-10.706 19.362-10.59 10.654.093 19.246 5.006 19.199 10.938" fill="#FFD35C"/><path d="M108.86 105.835c-.046 4.728-6.901 8.459-15.331 8.389-8.43-.093-15.263-3.939-15.216-8.667.046-4.727 6.901-8.481 15.355-8.389 8.43.07 15.239 3.963 15.192 8.667" fill="#FFA31A"/><path d="M104.231 105.812c-.023 3.29-4.817 5.886-10.676 5.84-5.86-.047-10.607-2.735-10.584-6.049.023-3.267 4.817-5.886 10.676-5.84 5.86.07 10.608 2.758 10.584 6.049" fill="#FFD35C"/><path d="M92.607 109.589a14 14 0 0 1-1.575-.139 9 9 0 0 1-1.042-.232l.648-1.182c.186.093.44.186.788.232.347.046.741.116 1.181.139l.023-2.364a16 16 0 0 1-.973-.37 6 6 0 0 1-.856-.464 2.6 2.6 0 0 1-.603-.626c-.185-.208-.231-.486-.231-.834 0-.556.231-.996.718-1.321.486-.324 1.158-.533 1.968-.625v-.997l1.83.023v.95c.44.024.857.07 1.181.116q.521.07.973.209l-.649 1.112a3.6 3.6 0 0 0-.671-.162c-.278-.046-.556-.093-.88-.116l-.023 2.155c.347.093.671.232.995.371.301.116.602.278.88.464.255.185.464.394.649.625.162.232.255.487.255.811 0 .603-.278 1.09-.765 1.437-.486.348-1.18.579-2.038.695v1.02l-1.83-.023v-.904zm.857-6.628c-.463.023-.787.116-.95.278a.58.58 0 0 0-.254.487c0 .209.115.417.347.579.232.139.51.302.857.441zm.185 5.469c.394-.069.718-.139.927-.301a.83.83 0 0 0 .324-.602c0-.255-.093-.464-.348-.603a3.1 3.1 0 0 0-.88-.44z" fill="#FFA31A"/><path d="M93.51 116.471c-10.63-.092-19.246-4.982-19.2-10.961l-.046 5.446c-.046 5.956 8.546 10.869 19.2 10.938 10.653.093 19.314-4.635 19.361-10.59l-.023 1.738v-.023l.046-7.184c-.023 6.002-8.708 10.752-19.338 10.636" fill="#FFA31A"/><defs><linearGradient id="a" x1="74.267" y1="108.426" x2="112.87" y2="108.426" gradientUnits="userSpaceOnUse"><stop stop-color="#DD3F18"/><stop offset=".416" stop-color="#E74A1B"/><stop offset="1" stop-color="#FD6120"/></linearGradient></defs></svg>