<svg width="1902" height="744" viewBox="0 0 1902 744" fill="none" xmlns="http://www.w3.org/2000/svg"><path d="M-9.5 19.014c6.197-.46 12.496-.768 18.898-.845 44.068-.64 84.577 9.994 120.708 20.578 36.13 10.61 71.749 21.32 110.081 30.162 34.492 7.97 71.109 14.197 109.698 15.812 10.294.435 20.434.512 30.446.256 29.626.256 59.278-6.022 88.623-10.43 20.869-1.87 41.354-6.996 61.84-1.87 189.486 46.127 384.094 56.377 565.896-12.814 28.17-10.25 56.34-5.125 87.06-2.563 120.35 17.939 235.58 23.064 355.93-5.125 69.14-17.938 133.16-41.002 204.16-48.51 22.77-2.512 46.14-3.87 70.14-3.64 33.57.333 65.96 3.23 97.02 8.431v648.502H-9.474V19.014z" fill="url(#a)"/><path opacity=".05" d="M1124.53 69.14c-37.16 1.102-136.408 46.255-181.526 47.844s0 25.011 93.416 19.681c93.41-5.356 88.11-67.525 88.11-67.525" fill="#D7D7D7"/><path opacity=".05" d="M502.908 93.766c20.971-25.55 96.996 19.63 171.562 17.426 74.54-2.204 127.776 25.857 73.26 41.925s-272.016-26.241-244.822-59.35" fill="#AEAEAE"/><g filter="url(#b)"><path d="M106.174 108.126c66.023 18.287 119.629 49.38 178.816 73.814 19.738 8.145 40.09 15.547 61.722 21.489 116.326 30.991 241.51 5.942 353.92 53.248 273.357 111.285 551.838 41.722 807.318-83.471 28.11-13.907 58.76-13.907 88.43-13.292 26.06.589 51.94 3.022 77.51 5.583 76.75 7.684 150.76 16.648 218.22-18.466 4.86-2.536 11.29-6.352 18.89-11.039V699H-9V83c37.274 10.322 77.594 14.701 115.174 25.126" fill="url(#c)"/></g><path opacity=".05" d="M1545.32 181.149c-36.61 6.407-128.35 65.296-172.77 73.343s3.58 24.755 95.26 6.099c91.64-18.656 77.51-79.442 77.51-79.442M440.082 259.335c34.764-40.387 222.179-6.381 275.426 23.653 53.248 30.035 195.326 29.035 210.993 57.147 15.641 28.112-245.066 45.231-312.726 14.044-67.634-31.162-222.179-38.517-173.693-94.844M23.14 116.673c42.418-13.095 165.603 20.194 202.646 67.859s-268.028-47.665-202.647-67.859" fill="#C5C5C5"/><path fill="url(#d)" d="M-10 391h1902v322H-10z"/><defs><radialGradient id="a" cx="0" cy="0" r="1" gradientUnits="userSpaceOnUse" gradientTransform="matrix(14.5422 594.18007 -2466.4914 60.3659 909.632 62.778)"><stop offset=".114" stop-color="#EFF3FF"/><stop offset=".9" stop-color="#F7F7F7"/></radialGradient><radialGradient id="c" cx="0" cy="0" r="1" gradientUnits="userSpaceOnUse" gradientTransform="matrix(-26.56124 1091.49687 -4830.50995 -117.54897 950.995 -392.502)"><stop offset=".114" stop-color="#ACC2FF"/><stop offset=".776" stop-color="#F5F5F5"/></radialGradient><linearGradient id="d" x1="941" y1="391" x2="941" y2="713" gradientUnits="userSpaceOnUse"><stop stop-color="#fff" stop-opacity="0"/><stop offset="1" stop-color="#fff"/></linearGradient><filter id="b" x="-69" y="8" width="2040" height="736" filterUnits="userSpaceOnUse" color-interpolation-filters="sRGB"><feFlood flood-opacity="0" result="BackgroundImageFix"/><feColorMatrix in="SourceAlpha" values="0 0 0 0 0 0 0 0 0 0 0 0 0 0 0 0 0 0 127 0" result="hardAlpha"/><feOffset dy="-15"/><feGaussianBlur stdDeviation="30"/><feComposite in2="hardAlpha" operator="out"/><feColorMatrix values="0 0 0 0 0 0 0 0 0 0 0 0 0 0 0 0 0 0 0.03 0"/><feBlend in2="BackgroundImageFix" result="effect1_dropShadow_21_7876"/><feBlend in="SourceGraphic" in2="effect1_dropShadow_21_7876" result="shape"/></filter></defs></svg>