<svg width="255" height="257" viewBox="0 0 255 257" fill="none" xmlns="http://www.w3.org/2000/svg">
<mask id="path-1-inside-1_29_2606" fill="white">
<rect x="0.5" width="254" height="257" rx="22"/>
</mask>
<rect x="0.5" width="254" height="257" rx="22" stroke="url(#paint0_radial_29_2606)" stroke-opacity="0.96" stroke-width="142" mask="url(#path-1-inside-1_29_2606)"/>
<g filter="url(#filter0_d_29_2606)">
<path d="M197.083 120.154C197.559 123.459 197.8 126.733 197.8 129.891C197.8 168.769 165.617 200.402 126.063 200.402C86.5094 200.402 54.3264 168.769 54.3264 129.891C54.3264 99.6229 73.8811 72.9119 103.077 63.1828C104.348 63.9878 105.791 64.4095 107.289 64.4095C111.649 64.4095 115.198 60.9211 115.198 56.6354C115.198 52.3497 111.649 48.8613 107.289 48.8613C103.248 48.8613 99.902 51.8514 99.434 55.7077C67.3915 66.8399 45.9336 96.5255 45.9336 129.907C45.9336 173.331 81.8762 208.667 126.063 208.667C170.243 208.667 206.193 173.339 206.193 129.907C206.193 126.395 205.928 122.753 205.398 119.066C207.199 117.594 208.245 115.432 208.245 113.109C208.245 108.823 204.696 105.335 200.335 105.335C195.975 105.335 192.426 108.823 192.426 113.109C192.418 116.191 194.251 118.912 197.083 120.154Z" fill="white"/>
<path d="M219.094 117.585C214.64 117.585 211.021 121.142 211.021 125.52C211.021 128.334 212.526 130.902 214.937 132.32C213.642 179.325 173.955 217.406 126.008 217.406C76.9383 217.406 37.0254 178.168 37.0254 129.944C37.0254 84.6179 72.8198 46.5218 118.676 42.8188C120.205 44.7431 122.506 45.8701 125.01 45.8701C129.464 45.8701 133.083 42.3128 133.083 37.9351C133.083 33.5574 129.464 30 125.01 30C121.898 30 119.105 31.7633 117.771 34.485C93.6849 36.4784 71.33 47.1659 54.7237 64.6384C37.8132 82.4406 28.5 105.64 28.5 129.944C28.5 182.791 72.2426 225.794 126.016 225.794C151.78 225.794 176.092 215.965 194.469 198.124C212.612 180.514 222.893 157.115 223.47 132.167C225.771 130.71 227.167 128.242 227.167 125.528C227.167 121.142 223.54 117.585 219.094 117.585Z" fill="white"/>
<path d="M126.396 66.7231C91.2024 66.7231 62.5684 94.8678 62.5684 129.46C62.5684 164.053 91.2024 192.197 126.396 192.197C161.59 192.197 190.224 164.053 190.224 129.46C190.224 94.8678 161.59 66.7231 126.396 66.7231ZM126.396 178.382C98.9556 178.382 76.624 156.439 76.624 129.46C76.624 102.489 98.9556 80.5386 126.396 80.5386C153.837 80.5386 176.168 102.489 176.168 129.46C176.168 156.439 153.837 178.382 126.396 178.382Z" fill="white"/>
<path d="M159.194 129.927C159.194 112.516 144.834 98.4016 127.121 98.4016C109.407 98.4016 95.0468 112.516 95.0468 129.927C95.0468 147.338 109.407 161.453 127.121 161.453C144.834 161.453 159.194 147.338 159.194 129.927Z" fill="#FF693B"/>
</g>
<defs>
<filter id="filter0_d_29_2606" x="28.5" y="30" width="208.667" height="203.793" filterUnits="userSpaceOnUse" color-interpolation-filters="sRGB">
<feFlood flood-opacity="0" result="BackgroundImageFix"/>
<feColorMatrix in="SourceAlpha" type="matrix" values="0 0 0 0 0 0 0 0 0 0 0 0 0 0 0 0 0 0 127 0" result="hardAlpha"/>
<feOffset dx="6" dy="4"/>
<feGaussianBlur stdDeviation="2"/>
<feComposite in2="hardAlpha" operator="out"/>
<feColorMatrix type="matrix" values="0 0 0 0 0 0 0 0 0 0 0 0 0 0 0 0 0 0 0.19 0"/>
<feBlend mode="normal" in2="BackgroundImageFix" result="effect1_dropShadow_29_2606"/>
<feBlend mode="normal" in="SourceGraphic" in2="effect1_dropShadow_29_2606" result="shape"/>
</filter>
<radialGradient id="paint0_radial_29_2606" cx="0" cy="0" r="1" gradientUnits="userSpaceOnUse" gradientTransform="translate(127.5 128.5) rotate(90) scale(128.5 127)">
<stop offset="0.528015" stop-color="#193CA0" stop-opacity="0"/>
<stop offset="1" stop-color="#193CA0" stop-opacity="0.2"/>
</radialGradient>
</defs>
</svg>
