<svg width="285" height="276" viewBox="0 0 285 276" fill="none" xmlns="http://www.w3.org/2000/svg"><path d="M155.809 255.413c-5.687 9.284-19.178 9.284-24.866 0-4.441-7.25-14.12-9.176-20.996-4.178-8.802 6.398-21.26 1.214-22.966-9.532-1.333-8.396-9.54-13.896-17.806-11.913-10.58 2.538-20.104-7.024-17.575-17.607 1.977-8.27-3.499-16.498-11.897-17.836-10.751-1.713-15.9-14.185-9.513-23.002 4.991-6.89 3.075-16.584-4.173-21.039-9.282-5.706-9.282-19.197 0-24.903 7.248-4.456 9.164-14.149 4.173-21.039-6.386-8.817-1.238-21.29 9.513-23.002 8.398-1.338 13.874-9.566 11.897-17.837-2.529-10.582 6.995-20.144 17.575-17.606 8.267 1.982 16.473-3.517 17.806-11.913 1.706-10.747 14.164-15.93 22.966-9.532 6.876 4.998 16.555 3.071 20.996-4.178 5.688-9.284 19.179-9.284 24.866 0 4.441 7.25 14.12 9.176 20.997 4.178 8.801-6.398 21.26-1.215 22.966 9.532 1.332 8.396 9.539 13.895 17.805 11.913 10.581-2.538 20.104 7.024 17.575 17.606-1.977 8.271 3.499 16.499 11.897 17.837 10.752 1.712 15.9 14.185 9.513 23.002-4.991 6.89-3.074 16.583 4.174 21.039 9.282 5.706 9.282 19.197 0 24.903-7.248 4.455-9.165 14.149-4.174 21.039 6.387 8.817 1.239 21.289-9.513 23.002-8.398 1.338-13.874 9.566-11.897 17.837 2.529 10.582-6.994 20.144-17.575 17.606-8.266-1.983-16.473 3.517-17.805 11.913-1.706 10.746-14.165 15.93-22.966 9.532-6.877-4.998-16.556-3.072-20.997 4.178" fill="#193CA0"/><path d="M66.88 205.57a100.5 100.5 0 0 0 51.217 32.374 100.3 100.3 0 0 0 60.477-2.989 100.55 100.55 0 0 0 47.791-37.267 100.9 100.9 0 0 0 17.765-58.023l-2.467.02a98.45 98.45 0 0 1-17.329 56.598 98.1 98.1 0 0 1-46.619 36.353 97.83 97.83 0 0 1-58.992 2.915 98 98 0 0 1-49.96-31.579zM223.263 78.449a100.51 100.51 0 0 0-113.572-33.301 100.52 100.52 0 0 0-66.542 97.876l2.466-.08a98.051 98.051 0 0 1 175.693-62.99z" fill="#00071C" fill-opacity=".16"/><path d="M7.973 154.393c.847 0 1.553-.141 2.4-.562.565-.422 1.27-.703 1.977-.703.141 0 .282-.141.565-.141 1.412-.421 2.824-.843 4.236-.983l2.118-.843c.847-.422 1.835-.422 2.682-.844.989-.983 2.26-.843 3.39-1.264.281-.422.705-.844 1.27-.844 1.13 0 1.977-.562 2.965-.983 1.412-.984 3.106-1.546 4.942-1.827l6.354-2.53c.282-.14.565-.281.847-.14.141 0 .282-.141.565-.141l.282-.281c-.706-.281-1.553.703-2.259.422-.424.14-.847.281-1.412.562-.423.14-.565.14-.565-.141 0-.14-.14-.281-.14-.281-.142 0-.142 0-.283.141-.283.14.141.562-.283.702-.14 0-.282-.14-.423-.281-.141-.281.282-.421.706-.421.988-.281 1.977-.844 3.106-.984.565-.141 1.13-.422 1.553-.562v.14s-.14 0-.14-.14v-.141H42l-1.27.422c-.424.14-.706.14-1.13.281-.423.14-.847.422-1.27.14.282-.421.847-.281 1.27-.421.706-.141 1.27-.703 1.977-.562.141 0 .282-.141.565-.141.565-.14 1.13-.281 1.694-.562.141-.14.282-.14.424-.281v-.141c-.848 0-1.695.563-2.542.563-.141 0-.282.14-.565.14-.423.141-.988.281-1.412.281 0-.281.283-.421.424-.562 0-.14.141-.14.141-.281h-.847c-.847.422-1.836.422-2.542.984-.282.14-.423 0-.423-.141-1.412.562-2.824.843-4.236 1.124-.565 0-1.13.282-1.553 0-.283.141-.706.282-.989.422-.988.422-1.835.703-2.824.422.283-.422.706-.281.989-.422.423 0 .706 0 1.13-.281.14 0 .282-.141.564-.141 1.13-.421 2.26-.983 3.389-.843.282-.14.565-.421.988-.421.847-.703 2.26-.844 3.107-1.687-.565.281-.989.141-1.412.141-.142 0-.424.14-.565.14-.565.141-1.13.422-1.695.422-1.976.562-3.953 1.405-6.071 1.686-1.27.422-2.4.984-3.671.984 0-.281.282-.281.423-.422s.424-.14.706-.281c.565-.14 1.13-.562 1.695-.421.706-.281 1.27-.422 1.977-.703.423-.14.847-.421 1.412-.421.988-.282 1.976-.844 3.106-.984.988-.281 1.977-.562 2.824-.422.565-.562 1.27-.702 2.118-.983.282-.141.565-.282.706-.422.423-.703 1.13-.984 2.118-.984a20 20 0 0 0 3.812-1.265c.282-.281.565-.562.847-.983v-.141c-.14.141-.423.141-.565.141-1.694.281-3.247 1.264-4.942 1.264-.423.141-.705.282-1.129.422-.424.281-.847.281-1.13.281-.282.422-.847.562-1.412.562-.564.141-.988.281-1.553.422-.423.14-.706.281-1.13.421-.705.141-1.27.703-1.976.563.565-.281 1.27-.563 1.835-.844.424-.14.706-.14 1.13-.281.706-.702 1.694-.562 2.4-.843.142-.703.848-.281 1.271-.562.141-.422.565-.562.989-.703.423-.14.988-.421.988.141 1.836-.703 3.53-1.687 5.365-2.108.424-.562 1.271-.703 1.836-.984.706-.281 1.553-.421 2.26-.562.846 0 1.835-.703 2.682-.703 0 0 0-.14.141-.14-.423-.281-.282-.703.283-1.265 0 .984.847.703 1.694.281.282-.14.565-.281.988-.14.565 0 .989-.703 1.553-.563.283-.14.283-.281.142-.421-.424 0-.565-.281-.283-.562.142-.281.424-.422.848-.141.282.141.564-.421.988-.421.565-.141 1.13-.281 1.553-.422 1.27-.703 2.683-1.265 4.095-1.405.282-.141.565-.141.706-.281 0-.141.141-.141.141-.281.565-1.406 2.26-1.546 3.53-2.39 0 .563-.847.844-.847 1.265h.847c.282-.14.424-.281.706-.281.282-.281.141-.562.847-.702.424-.141.989-.563 1.13-.844.565-.843 1.13-.702 1.835-.702.424-.281.989-.422 1.695-.703.847-.422 1.553-.562 2.4-.843a7 7 0 0 1 .988-.422c0 .281-.423.562-.14.703.14 0 .282-.141.423-.141.706-.14.706-.983 1.553-.702.706-.281 1.412-.984 2.26-.562l.281-.281c.707-.703 1.695-.563 2.4-.844-.14-.281-.423-.421-.564-.562h-.282c-.565.281-1.271.281-1.836.703-.141.14-.141.703-.565.14-.282-.281-.565.141-.847.141-.423 0-.847.421-1.27.281.282-.281.847-.422 1.129-.562a17 17 0 0 0 2.4-.984c0-.14.142-.281.142-.421-.424.14-1.13.281-.707-.282-.423-.14-.847.282-1.27.141h-.283c-.564.281-1.27.703-1.976.562-.142 0-.424.141-.565.141l-.141-.141c-.142-.14-.283-.14-.424-.281-.565-.14-.141-.281.141-.422 0-.14.141-.421 0-.562-.423-.421.141-.421.565-.421h.282c.283.14.706-.281.706 0 0 .421-.564.14-.847.421 0 .141 0 .281.141.281.424.141.706.141 1.271 0 .424-.562.988-.562 1.553-.702.706-.843 1.13-.141 1.695-.281h.282c.706-.281 1.412-1.265 2.26-.562 0 0-.142 0-.142.14 0 0 0-.14.141-.14.283-.282 0-.422 0-.563-.706.141-1.27.141-.565-.562.424-.14.989-.421 1.413-.421.282-.141.423-.141.564 0 1.13-.562 2.542-.703 3.389-1.827.565-.703 1.977-.703 2.965-.984.141-.141.424-.141.565-.281.282-.281.565-.562.988-.562 1.412-.422 2.824-1.265 4.377-1.405.565-.141.989-.703 1.554-.563.141 0 .141 0 .282-.14.424-.141.706-.422.988-.703 1.554-1.124 3.53-1.405 5.366-2.108.424-.14.988-.421 1.553-.281.565-.703 1.412-.843 2.259-.984 1.695-.702 3.389-1.264 5.083-1.967.142 0 .424-.141.565-.141.847-.281 1.836-.702 2.683-.983.282-.281.565-.14.847-.14.847-.422 1.553-.704 2.401-1.125.847-.562 1.835-.422 2.682-.843.424-.281.847-.562 1.271-.562.565-.281 1.13-.563 1.694-.422 1.13-.422 1.836-1.265 2.966-1.686l.282-.281c.141-.422.565-.422.988-.563.706-.562.565 0 .706.14-.282.141-.423.141-.706.282.142-.14.424-.281.706-.281.424 0 .706-.281 1.13-.281.282-.14.847-.281.988-.562 0-.422.283-.844.848-1.124.282-.422.706-.282 1.129-.422h.424c.282-.14.423-.281.706-.422q.846-.843 1.27 0c.283 0 .283.14.424.281.141 0 .141 0 .282-.14.142-.14.424-.422.565 0 .141.14.141.28.424.14.565-.421.988-.14 1.553-.14.141-.281.282-.422.565-.703h.141c.141-.28-.141-.843.847-.843.283-.14.706-.281.989-.422.423-.14.706-.562 1.129-.28.706-.422 1.553-.703 2.401-.844.141 0 .282-.14.564-.14v.14h-.141c.847-.562 1.553-1.124 2.542-1.546.141-.421.706-.843 1.27-.843s-.141.422 0 .703c.424 0 .424-.281.706-.422v-.14c-.141-.422-.141-.703.706-.703.283-.14.565-.14.706-.281.142 0 .283-.281.565-.14.565-.422 1.977-.282 1.977-1.266 0 0 .706-.28 1.13-.421.282-.703.847-.703 1.412-.984.564-.421.423 0 .564.14h.283v.141s-.141 0-.141-.14c.282-.14 0-.562.564-.703 1.412-.281 2.401-1.124 3.53-1.686.424-.281.706-.562 1.271-.562.988-.563 2.4-.703 3.106-1.546.283-.422.706-.562.989-.562l.847-.422c-.141-.422-.706 0-.988-.14.564-.141.988-.422 1.412-.563.564-.14.988-.843 1.835-.702l.424-.422c.282-.562 1.271-.703 1.694-1.265.283-.562.989-.702 1.553-.702.142-.14.283-.14.565-.281.141 0 .283-.141.424-.141 0-.14-.141-.422.141-.562 1.412-.843 2.965-1.265 4.518-1.827.706-.281.283.281.565.281h.565c.988-.281 1.835-.703 2.965-.422.706.141 1.694-.421 2.542-.562.141 0 .141-.14.282-.14.424-.422.706-.843 1.13-.281 0 0 .282-.14.423-.14.141-.985 1.412-.703 2.118-1.125v-.562c-.282-.422-.565-.703.565-.843 0 .14-.141.28-.141.421-.142-.14-.142-.28.141-.421.565-.422 1.271-.703 1.694-1.265.565-.843 1.553-1.265 2.683-1.546 1.271-.843 2.542-1.124 3.812-1.124.706 0 1.412-.843 2.118-.422.989.562.706 1.687 1.271 2.39.706-.282 1.13-.141 1.553.14 0-.422.141-.843.989-.703.141 0 .141-.14.282-.14 1.271-.563 2.4-.703 3.53-.563.565.281 1.553 0 1.977.422.141.281.706.421.282.843-.282.422-.706.703-1.412.562-.706.422-1.412.703-2.118.984-.141.14-.423.14-.565.281 0 0-.141.14-.282.14-.282.282-.706.422-1.13.422-.423.281-.706.562-1.129.843-.283.563-.988.703-1.553.984-.283.14-.706.422-.989.562-.282.422-.423.703-.282 1.124 0 .563-.424.141-.706.281-.141.844.424 1.406.141 2.25.141.28.141.561-.282.842 0 .14-.141.281-.141.422.141.28.564.14.988 0l.141-.14c.424-.282.989-.563 1.271-1.125.706.703.282 1.405-.141 2.108l.423.422c-.141.28-.282.421-.423.702.141.422 0 .703-.424 1.125-.141-.141-.282-.422-.423-.563.423 0 .564.141.564.563 0 .28-.141.562.142.562.564-.422.988-.984 1.412-1.406.282-.421.847-.421 1.27-.702.989-.984 2.542-1.265 3.813-1.687l.282-.28c-.424-.282-1.271.28-1.836 0 1.836-.984 3.53-1.968 5.648-2.39 1.13-.562 1.554-.14 1.977.422 0 0 0 .14-.141.14 0 0 0-.14.141-.14.283.14.847-.562.847 0s-.423.843-1.129.843l-.141.14c-.283.563-1.13.422-1.554.844a1.7 1.7 0 0 1-.706.702c-.423.422.142.282.283.563.282 0 .423.14.565.421.141 0 .282 0 .282.14.424-.14.988-.28 1.13-.42.564-.563.988-.282 1.553-.422-.141-.282-.141-.422 0-.563-.424-.28-.283-.702 0-1.124.141-.14.282-.562.847-.562s.565.281.565.562v.14-.14h.282c.424-.422.847-.422 1.412-.422.424-.14.706-.28 1.13-.562 0 .422-.848.422-.848.844l.142.14 1.27-.422c1.271-.702 2.401-1.264 3.672-1.967 0 0 .141-.14.282-.14h.424c-.142 0-.424.14-.424 0 .847-.282 1.271-.844 1.977-1.125.141-.421.706-.421.988-.562.565-.421 1.13-.421 1.695-.281.988-.422 2.117-.843 3.247-.984.565.14.988 0 1.553-.421-.282.702-1.129.702-1.694.983-.283.282-.847.282-1.271.563-.565.28 0 .562-.282.843 0 .14 0 .28.141.421 0 0 .141 0 .141.14.282 0 .565-.14.706-.14.706-.421 1.13-1.264 2.118-1.124.706.14 1.271-.14 1.977-.421 1.412-.282 2.118 0 2.4.843 1.412-.14-.423.562-.141.843.988.421.282 1.265.424 1.967 0 .422.423.703-.142 1.265 0 .703-.141 1.265.142 1.827.282.281-.283.422-.565.703l-.565.562c.141.14.424 0 .565 0 .282-.14.565-.14.847-.14.141 0 .282.14.424 0 1.129-.422.988.14 1.129.42.141 0 .141.141.283.141.282.422 0 .984 0 1.406v.14c0 .14 0 .281.141.281.706-.14.988.422 1.694.14 0-.14 0-.28-.141-.42-.424-.563.424-.844.847-1.125.706-.281.989.14.989.422 0 .421.423.843.141 1.405 0 .281.141.422.141.703.423.702.847 1.264.282 2.108 0 .28-.423.562-.706.843 0 .28-.141.703-.141.984.141.28.424.562.847.702.989.843.706 2.108.706 3.232 0 .281.141.422 0 .703 0 .14-.141.562.283.562 1.694 0 1.835.281.564 1.406l-.141.14c-.282.281-.706.422-.988.703-1.553.984-3.106 1.827-4.942 2.389-.565.28-1.13.562-1.694.983 0 .282-.142.563 0 .703.141-.14.423-.28.564-.421 1.271-1.125 2.683-.703 3.954-.984 0-.843.847-.562 1.412-.703.706 0 1.553-.562 2.259-.421.706-.282 1.412-.282 2.118-.282.988 0 1.694.282 2.824-.28.282-.141.988-.141.847.421.565.281.706.843.565 1.405.141 0 .141-.14.282-.28.424 0 .283.14.142.28-.283.422 0 .703.141.984.141 0 0 .14.141.281 0 0 .141.14 0 .281.424.703 1.13 1.406.988 2.39 0 .14-.141.28-.282.42-.424.704.565 1.406-.565 2.249 0 .281-.141.563-.565.563-.847-.141-1.694.281-2.4.14-.424 0-.847.422-1.271.281-.141 0-.282.141-.565.141-.282.281-.706.281-1.129.421-1.695.703-3.53.703-5.224 1.546l.847.843c.423 0 .988-.281 1.129.141.424 1.265 1.271 2.389.565 3.935v.281c.565.281.847.843.847 1.405.424 0 .706.141.141.703-.282.281-.282.421-.141.702.141 0 .283.141.424.282h.282c1.271.14 1.553.702 1.836 1.545 0 .141.141.422.282.563.424.421.706.702.706 1.264.283.562.424.984.706 1.546 0 .281.283.562-.565.562h-.141c-.141.422-.282.562-.423.844.282.562.423.983.564 1.545v.141c.283.421 0 .843-.847 1.124l-.141.141-.282.281c-.142.421.423.281.706.281 0 0 .141 0 .141-.141.565-.281 1.129-.281 1.553-.562.141 0 .141-.14.282-.14.424-.141.706-.422 1.13-.703s.847-.281.988 0c.424 1.124 1.695 1.827 2.26 2.951.141.141.141.281 0 .562 0 .141-.142.281-.142.422.283.421-.141.843-.706 1.124v.843c0 .422.706.844-.141 1.406-.565.702-1.129 1.405-2.259 1.545-.141 0-.141.141-.282.141-.706.562-1.554.562-2.26.703h-.141c-.282 0-.565.14-.847.14a2.4 2.4 0 0 1-1.412.422c-.282.14-.706.281-.988.421-.142 0-.424.141-.565.141-.565.281-1.13.422-1.836.703 0 .14.142.281.142.421.705 1.124 1.129 2.108 1.129 3.232.565.282-.282.844-.141 1.265.141.281.141.703.423 1.125.142.562-.282.421-.706.562 0 1.405-.423 1.827-2.965 2.81-.282.281-.847.422-1.27.562-.142.141-.283.422-.424.563-.282.421-.565.843-1.13.983-.141 0-.282.141-.423.141-.706.843-1.836.984-2.683 1.405 0 .141-.141.422-.424.562-1.27.422-2.4 1.125-3.671 1.546-.988.703-2.118 1.405-3.53 1.546h-.282c-.424 0-.706.14-.988.422-.283.421-.848.421-1.271.562-.141.421-.565.421-.989.562 0 .702-.847.562-1.412.702l-.141.141c-.423.562-.988.703-1.694.843-.565.141-1.13.422-1.553.562-.142 0-.283.141-.424.281-1.553.703-2.824 1.968-4.659 2.53 0 0 0 .141-.142.141-.423.281-1.129.421-1.694.702l-.141.141h-.141l-.142.14c-2.259 1.124-4.518 1.827-6.777 2.53h-.283c-.847.421-1.553.702-2.4 1.124-.565.281-.847.141-.988-.14-.565.14-1.13.14-1.553.562-.283.562-1.554.843-1.554 1.546-.423.562-.847.843-1.553.702-.141 0-.141 0-.282-.14-.141 0-.141.14-.283.14-.282.141-.423.562-.988.562-.141 0-.141-.14-.141-.14-.141-.562.706-.422.988-.703.141-.14.283-.281.424-.281 0-.14-.283-.281-.565-.14-1.977.562-3.671 1.826-5.648 2.108-.424.14-.847.421-1.412.562-.141.14-.282.14-.424.281-.423-.141-.847.702-1.411.421-.283.141-.565.281-.848.141-.423.14-.847.281-1.412.421-.282.141-.141.563-.706.563-.423 0-.847-.141-1.27-.141 0 .281.282.562-.142.703-.282.281-.141-.281-.564-.281-.283 0-.424.421-.848.281-.282.14-.706.14-.706.562 0 .702-.423.14-.564.281-.283.14-.424.281-.706.562-.283.422-.565.562-.989.422-.423.14-.706.281-1.129.421-.706.562-.706.422-.989-.14-.282 0-.565 0-.847.14-.141 0-.141.141-.282.141-.142.14-.565.421-.565.843s-.565.703-1.13.562c-.141-.14-.706 0-.423-.422h-.283a2 2 0 0 0-.423.563c0 .14.141.421-.565.702-.141-.14-.706-.281.141-.562 0 0 0-.14-.141-.14-.424.14-1.13.281-1.13 0 0-.422.706-.703 1.271-.563.424-.281.706-.421.989-.562l.282-.281c-.141-.421.424-.702.847-1.124 0-.141-.141-.281-.141-.422-1.694.422-3.248.563-4.801 1.406l-.423.421c.141.141.423.281.706.141.423-.141.847-.281.988 0 .141.562-.706.421-.706.703s-.282.421-.706.562c-.424.14-.988.421-1.271 0-.282-.422-.565 0-.847.14.282.562.282.703-.565.984-.423.14-.988.281-1.412.422-.282.281-.706.281-1.129.281-.283.421-.565.702-1.271.702-.141 0-.424.141-.565.141-.424.14-.847.421-1.271.562-.141.281-.282.703-.847.843-.423.281-.847.422-.847 0-.141 0-.424-.14-.424 0 .142.843-.706.422-1.129.562-.141-.14-.283-.14-.424-.281-.141 0-.282.141-.423.141-.283.14-.424.562-.848.702-.141 0 0-.281 0-.421-.423.562-1.412.702-1.835 1.265v.421c-.283-.14-.565-.14-.847-.281-.283 0-.565.141-.848.141l-2.118.843c-.282.14-.564 0-.706.281-.564 1.124-.423-.141-.706.14h-.282c-.706.141-1.13.703-1.835.844-.424-.141-.706.281-1.271.562.565-.843.282-1.687 1.977-1.687.282-.281.847-.14.988-.562h-.283c-.423.141-.423 0-.423-.281-.141 0-.283.141-.424.141-.564.562-1.553.562-2.259.983-.141 0-.141-.14-.141-.281 0 .141.141.281.141.281-.141.141-.282.422-.423.563-.424.14-.283.281 0 .421.988-.14.141.562.282.843l-.847-.421c-.141.14-.283.14-.424.281-.988.421-1.977.843-3.106.843.141.281-.283.562-.565.843 0 .281-.141.422-.565.562l-.423.422c.282.843.847 1.546 0 2.53.282.562 0 1.264.141 1.967 0 .703-.706.281-.989.422v.421c.424.984.142 1.265-1.553 1.546-.282.141-.706.281-.988.422-.706.421-1.412.562-2.118.702-.424.281-.847.422-1.271.562-.988.703-2.118.703-3.247 1.125-.142.281-.565.281-.848.421a3.8 3.8 0 0 1-1.694.422c-.706.281-1.271.703-2.118.703v-.141s.141 0 .141-.141c-.141 0-.141 0-.282.141.141 0 .141 0 .141.141-1.412.562-2.965 1.124-4.377 1.264-.141.141-.282.141-.424.141-.141.14-.423.281-.564.281-1.13.14-2.26.843-3.389.984h-.141c-.142 0-.142 0-.283.14-.423.141-.706.141-1.129.281s-.706.281-1.13.422c-.706.14-1.271.562-1.977.562-.565.281-1.271.281-1.977.562s-1.27.562-2.117.703c.705-.562 1.411-.843 2.117-1.125 1.836-.843 3.813-1.124 5.648-2.107.142-.141.565 0 .848 0 .847-.703 1.835-.563 2.682-.844 2.542-.983 5.083-1.967 7.625-2.67 1.271-.421 2.683-.843 3.954-1.546 0-.14-.142-.14-.142-.281-.141 0-.282.141-.564.141-.706.14-1.412.562-2.26.702 0 0-.141.141-.141 0l.283-.281c0 .141 0 .141-.142.281-1.412.563-2.965.984-4.377 1.265-.565.281-.988.562-1.553.562-.282.141-.565.141-.847.281h-.141c-.424.141-.847.282-1.271.282-.706.281-1.553.702-2.4.702 0-.421.282-.562.706-.843h-.142c-.141-.281-.141-.562-.564-.562-.848 0-1.554.843-2.542.703-.282.14-.424.421-.706.281-.424.281-.988-.141-1.271.421-.282.281-.141.422-.141.703.424.281.988 0 1.553-.281.424-.281.989-.422 1.553-.562.142 0 .565-.141.565 0 0 .281-.423.281-.706.421-.423 0-.988.281-1.271.562-.706.281-1.412.422-2.259.703-.423.141-.847.422-1.553.422.565-.281.565-.703 1.271-.562.282-.141.565-.282.706-.422-.706-.141-1.271-.281-1.977-.422 0 .141-.141.141-.141.281 0 .281-.141.422-.424.563 0 .983-.847.983-1.835.983-.565.703-1.553.562-2.259.703-.424.14 0-.422-.142-.562-.141-.141-.423 0-.564 0v.14c.141.281.282.422-.283.703-.141.281-.282.281-.565.14-.564.141-1.129.422-1.694.282-.424 0-.847.562-1.271.421-.423.141-.706.422-1.129.281-.283.141-.565.281-.848.141l-.423.421c-1.271.422-2.683.281-3.954.844-.14-.563-1.27-.282-1.412-.703-.282 0-.565.281-.706.14-.14-.14.283-.281.424-.421.988-.422 1.977-.562 2.965-.703.424-.14.706-.421 1.13-.281.564-.281 1.129-.422 1.553-.422.706-.281 1.271-.843 1.977-.562.564-.281.988-.562 1.553-.562.282 0 .706-.14.988-.14.424-.422.847-.422 1.13 0 .282-.141.706-.422.988-.562.283-.422.989 0 1.412-.422 0-.141-.141-.281-.141-.422-.424 0-.565-.281-.847-.421-.141 0-.283.14-.424.14-.141.141-.706.141-.706.562 0 .282-.423.282-.706.141-.282-.141.141-.281.141-.422h-.423c-.283.141-.706.281-.989.281-.141 0-.141 0-.282.141-.565.281-1.271.422-1.553 0h-.141c-.848.984-2.118.984-3.248 1.265-.847.281-1.836.562-2.683.843-1.553.422-3.106.843-4.66 1.405.142-.14.424-.14.707-.281-.283 0-.424.141-.706.281-.424.141-.989.281-1.412.422-.989.281-1.977.703-2.824.421-.141 0-.141.141-.283.141 0 .422-.423.562-.847.422-.423-.141.141-.281.141-.422-.282 0-.564.141-.988.141-.141 0-.282.14-.424.14-.423.141-.847.422-1.412.422l-1.27.421c-.706.422-1.412.562-2.26.703-.988.14-1.976.562-3.106.843-.423.141-.988 0-1.27.422-.283 0-.283.843-.848.281-.282-.281-1.13 0-1.553.281-.988-.141-.988.14-1.553.421-.283-.14.141-.421.141-.562-.141 0-.424.141-.565.141-.14.14-.282.421-.423.562-.142.281-.565.562-.848.422-.564-.141.565-.281.142-.563-.142 0 0-.14-.142-.281-.14 0-.282.141-.564.141-.706.562-1.412.984-2.26.703h-.988c-.282.14-.565.14-.847.14-.282.141-.706.281-.989.562-1.411.703-2.823 1.124-4.377 1.265-.564.141-.988.281-1.412.281-.282 0-.706.281-.988 0-1.13.422-2.26.843-3.53.984-.706-.141-1.27.421-1.977.562-.847.14-1.553.281-2.4.281-.565.281-1.27.843-1.694.281q-.636.632-1.271.422c-.989.421-1.977.843-2.965.983-.424.563-.989.844-1.695.703-.14-.422.565-.422.706-.703-.282 0-.423-.14-.706-.14-.282 0-.564.14-.847.14 0 0 .141 0 .141-.14v.14c-1.13.563-1.412.281-1.694-.421-.282-.703.565-1.124 1.27-1.546.566-.141 1.413-.141 1.695-.562-.424 0-.565-.141-.282-.562-.283-.984 1.13-.844 1.694-1.265 0-.141-.282-.141-.424-.281-.564-.141-.423-.422 0-.843.565-.562.565 0 .848.14.14 0 .423.141.564.141h.706c.565-.281 1.271-.562 1.977-.562.141-.281.283-.422.424-.703-.283 0-.424-.141-.706-.141-.565-.14-.141-.281.141-.421.565-.281.988-.422.847-.984-.141-.14-.141-.281-.423-.281-.283.843-1.271.703-1.836.843.282-.14.988-.281 1.412-.562v-.14c-.847.14-1.694.281-2.683.421-.141.562-.423.984-1.412.984.283-.422 1.13-.562.847-.984h-.564c-.142 0-.424.141-.565.141-.424.14-.847.421-1.412.421-.141.141-.282.141-.565.281-1.27.844-1.412.141-1.694-.281-.142 0-.283.141-.424.141-.847 0-1.694.421-2.541.702-.565.703-1.13.282-1.695.422-1.13.281-2.259.562-3.53.703 1.695-.984 3.53-1.265 5.366-1.687.14-.281.423-.421.847-.562.424-.14.988-.14.847-.702-.282.14-.706.281-.988.281-.706.281-1.412.702-2.26.702-.14 0-.423.141-.564.141-.565.281-1.13.562-1.836.281.847-.281 1.836-.703 2.683-.984.565-.281 1.412-.421 1.835-.984h-.564c-.424.281-.706.281-1.13.281-.565.563-1.13.703-1.694.703-.424 0-.565.562-.989.281-.14 0-.14.141-.282.141-.424 0-.706.702-1.13.281-.282.14-.564.14-.847.281-.141.421-.423.703-.847.703-.565 0-.141-.422-.282-.563-.424.281-.706.563-1.271.563h-.706c-.141.14-.282.14-.565.281v.14c-.424.422-2.541.984-3.106.843-.283.141-.565.141-.848.281-.564.422-1.13.562-1.694.141.282-.422.706-.281.988-.281.283-.141.565-.141.706-.281.424-.141.424-.422.565-.703h.141-.14c-.283-.421-.707 0-1.13.141-.142.421-.706.702-1.271.843-.424.14-.706.702-1.27.702-.707.141-1.272.563-1.978.563-.564.14-1.13.562-1.694.562-.565.562-1.412.421-2.118.702-.565 0-1.13.281-1.694.141.706-.141 1.27-.422 1.976-.422.283-.14.424-.14.706-.281 0-.421.283-.562.848-.562.423-.14.847-.14 1.412-.281.14 0 .14 0 .282-.14.847-.422 1.553-.703 2.4-1.125h-.423c-.847.422-1.695.422-2.542.422-.706.281-1.27.562-2.118.562.706-.562 1.271-.562 1.977-.703 1.27-.14 2.4-.843 3.671-.983 1.13-.562 2.26-.141 3.389-.844.565-.562 1.27-.421 1.977-.562.14 0 .14 0 .282-.14.565-.141.988-.562 1.694-.281.424.14 0 .281 0 .562.424.14.848-.141 1.13-.281l.141-.141c1.13-1.124 2.683-1.265 4.095-1.827 1.553-.562 3.248-.983 4.8-1.264.424-.141.848-.282 1.272-.282 1.553-.702 3.247-1.124 4.8-1.686.565-.14 1.13-.422 1.695-.703-.142-.421.282-.421.706-.562.423-.14.706-.421 1.13-.281.282 0 .564-.14.846-.281.848-.281 1.553-.702 2.4-.702.142 0 .142-.141.283-.141.282-.562.282-.562-.847-.422-1.27.422-2.4.984-3.812 1.125-.424.14-.706.14-1.13.14-.424.141-.988.422-1.553.422-.847.281-1.553.421-2.4.702-.989.281-1.977.844-2.966.984-1.27.562-2.541.562-3.953 1.124-.847.703-1.977.703-2.965 1.125-.283 0-.565.14-.848.14-.282.141-.564.141-.847.141-.565.281-1.13.281-1.694.562-.424.421-.989.562-1.553.703-.424.14-.848.14-1.13.281-.141 0-.424-.141-.424-.281.283-.422-.423-.422-.705-.703 1.13.14 2.259-.703 3.388-.562.565-.141 1.13-.422 1.695-.562.282-.141.564-.141.706-.141l5.506-1.686 3.39-1.265h.14c-.14.14-.282.14-.423.281.847 0 1.412-.422 2.259-.703.141 0 .141 0 .282-.14 1.553-.562 2.683-1.124 3.954-.843h.282c.989-.844 2.4-1.265 3.53-1.968l.424-.421c-.989 0-1.977.562-3.107.843-.847.14-1.835.562-2.682.702-.424.141-.989.281-1.553.563.423-.703.988-.563 1.553-.703 1.412-.562 2.965-.984 4.377-1.405.565-.422 1.27-.563 1.694-.984.141 0 .283-.141.283-.141v-.562c-.989.281-1.977.422-3.107.703-.141 0-.141 0-.141-.141.141-.421.847-.281 1.13-.562-.565 0-.989-.281-1.412-.421-.848 0-1.554.702-2.542.843-.706.14-.565-.141-.424-.422l-1.694.422c-.988.562-2.118.421-3.106.702-.424.422-.706.422-1.13.141.424-.141.847-.281 1.13-.422 1.27-.421 2.541-.983 3.812-1.405 0 .141-.141.141-.282.281h.14c0-.14 0-.14.142-.281.282-.141.424-.422.706-.562.282-.562 1.27-.562 1.694-.984-.564.141-.988.281-1.553.422v-.141c.989-.281 1.836-.702 2.824-.984.989-.562 1.695-1.264 2.965-1.124.565-.421.424-.984.989-1.405 0-.281.423-.562.564-.843-.282 0-.564-.141-.847-.141.283-.421.706-.281.989-.281.423-.14.847-.281 1.27-.562-.14-.141-.14-.281-.282-.422-.988.422-1.694-.281-2.541.141-.565.14-1.13.562-1.695.422-.565.14-1.13.421-1.553.562-.706.562-1.694.281-2.542.702-.706-.14-1.13.281-1.553.562-.423.141-.706.422-1.13.281v-.14c-1.129.14-2.117.562-3.247.984-.706.281-1.27.562-1.977.281-.423.14-.706.562-1.27.562-.565.14-1.13.562-1.695.421-.141 0-.282.141-.565.141l-1.27.422c-.283.14-.565.281-.706.14v-.14c.282 0 .423-.141.706-.141.988-.422 2.259-.562 3.53-.843.564-.562 1.27-.422 1.976-.562.847-.562 1.977-.562 2.965-1.125.424-.14.989-.421 1.413-.562 0-.14.14-.281.14-.421-.282-.281-.705-.141-1.129 0-.423.14-.706.562-1.13.421-.423.141-.706.281-1.13.422l-1.27.422c-.706.281-1.27.702-1.977.562v-.141h-.14c-.707.562-1.413.984-2.119.984-.706.421-1.27.703-2.118.562.706-.281 1.412-.562 1.977-.843.282-.141.141-.281.141-.422.565-.562 1.412-.702 2.26-.843.14-.141.423-.141.423-.281.141-.281-.141-.281-.424-.141-.706.281-1.553.422-2.259.563-.847.421-1.553.562-2.4.702-.847.562-1.977.843-2.965 1.265-.283.422-1.412.562-1.271 1.265.282-.141.565-.141.706-.281.565-.281 1.13-.422 1.977-.703-.848.843-1.553.984-2.4 1.124-.283.141-.707.281-.99.281-1.27.422-2.54 1.125-3.811 1.265-.283.141-.565.141-.706.281-1.554.562-2.966 1.265-4.519 1.968-.847.983-2.259.983-3.389 1.546-1.27.702-2.541 1.264-3.953 1.405-.424 0-.282-.141-.282-.281-.142-.141-.283-.141-.424-.281-.141 0-.141 0-.282.14-.283.141-.424.141-.424.422-.706.562-1.553.843-2.683 1.124.706-.703 1.695-.843 2.4-1.124-.564-.141-1.129.421-1.694.281-.282.14-.565.14-.847.281-.847 0-1.694.422-2.542.703.142 0 .424.14.706.14-1.412.422-2.4 1.265-3.953 1.406-1.13 0-.989-.282-.706-.703.706-.281 1.27-.562 1.977-.562.847-.422 1.835-.562 2.682-.843.565-.282 1.13-.282 1.695-.422.282-.141.706-.281.988-.422.706-.421 1.412-.421 2.26-.702v.14s-.142-.14 0-.14c-.283-.844.423-1.265 1.553-1.687.847-.281 1.835-.562 2.682-.843 1.836-.703 3.671-1.405 5.507-1.827.847-.281 1.694-.702 2.683-.984h.565c.706-.281 1.412-.983 2.4-.843-.424.422-.988.562-1.553.703-.141.703 1.13-.141 1.13.422h.564c.706-.141 1.27-.563 1.977-.563l.282-.281a1.1 1.1 0 0 0-.564-.562c-.142 0-.565.281-.565.141-.142-.141.14-.281.423-.422l2.542-.843c.282-.141.847-.281 1.412-.562 1.27-.843 2.683-1.124 4.236-1.406.282-.14.565-.14.706-.281-.141-.281.565-.562 0-.702-.283.14-.706.14-.989.281-.14.14-.423.14-.564.281-.706 0-1.271.421-1.977.562-1.836.562-3.671 1.265-5.366 1.827-.282.14-.706.281-.988.422-.283 0 0-.141.141-.282 1.553-.843 3.107-1.405 4.8-1.967.424-.141 1.13-.281 1.554-.562v-.141s0-.14-.141-.14l-1.695.421c-.282.141-.564.141-.847.281-.706.141-1.412.844-1.976.422-.424.141-.848.141-1.271.281-.283.141-.424.141-.424-.14 1.27-.422 2.542-1.125 3.813-1.265.423-.281.705-.281 1.129-.281.706-.843 1.836-.984 2.824-1.406 1.836-.843 3.812-1.967 5.93-1.686l.283-.281c.282-.703 1.27-.422 1.694-.984-.282.141-.565.141-.847.281-.141-.281.282-.281.565-.281.565-.281 1.27-.702 1.553 0 .141-.14.423-.14.565-.281 0-.562.706-.702 1.13-.843.14 0 .14-.141.14-.141 0-.14-.14-.281-.423-.281-.282.281-.565.281-.847.141-.142.14-.142.422-.424.422s-.282-.141-.423-.282c-.565.282-1.13.563-1.695.563l-1.27.421c-1.836.703-3.672 1.124-5.507 1.687-.283.14-.565.14-.848.281-1.27.281-2.541 1.124-3.812 1.264-.424.141-.565.141-.706-.14-.282.281-.565.562-1.13.422-.705.562-1.694.421-2.4.843-.282.421-.424.281-.565 0-.282.14-.564.14-.988.281.282-.422.565-.562.988-.703h.283c.706-.14 1.27-.562 1.835-.843s1.13-.281 1.553-.703h-.564c2.682-.983 5.506-2.108 8.33-3.091-.14-.282-.282-.563 0-.984h-.564c-.565.14-.989.281-1.554.281-.282.14-.706.281-.988.281l-2.118.843c-.141-.281.424-.281.424-.421-.283.14-.565.14-.848.281-.423.14-.847.281-1.412.562.142-.422.424-.562.848-.703.564-.281 1.27-.422 1.835-1.124v.843c.706 0 1.271-.422 1.836-.703v-.14c-.565-.281-.141-.562.282-.562.565 0 .847-.422 1.271-.562.282.562-.706.562-.847.843.423.562 1.13 0 1.835-.141.989-.562 2.118-.421 3.107-.702.14 0 .14-.141.282-.141.141-.141.424-.422.424-.562 1.412-.141 2.4-1.124 3.67-1.405a52 52 0 0 1 4.096-1.827c.988-.703 2.118-.844 3.106-1.406.282-.421.988-.562 1.553-.843.282-.281.282-.421-.141-.421-2.26.843-4.518 1.826-6.778 2.67-.423.14-.847.421-1.27.421-.142 0-.283.141-.565.141-.282.421-.847.421-1.27.702-.566.281-1.272.422-1.837.703-.282.141-.423.281-.706.422-.988.421-2.117.843-3.247 1.124.988-.843 1.977-1.546 3.389-1.686.423-.703 1.412-.563 2.118-.984.14-.422.706-.422.988-.562.847-.984 2.118-1.125 3.248-1.546.564-.281 1.27-.422 1.835-.562.141 0 .283-.141.424-.141.706-.562 1.694-.843 2.541-1.265a6.3 6.3 0 0 0 1.554-1.124h-.565c-.565.281-1.13.422-1.695.703-.282-.281.424-.562.142-.843h-.142c-.706.14-1.553.421-2.4.702.565-.702 1.27-.702 1.977-.702q0-.211-.424-.422c-2.118.422-4.377.703-6.495 1.405-.706.281-1.553.422-2.26.703-.423.281-.705.281-1.129.281-.706.422-.282.843-.564 1.265-.565.843-.989 1.124-1.977.843-.989.281-2.118.141-3.248.422-1.412.421-2.824.702-4.095 1.124-.423.14-.706.14-.988 0h-.847c-.141 0-.282.14-.565.14-.282.141-.423.422-.706.563.424.281.847-.422 1.27-.282-.987.984-2.117.703-3.247.984-1.412.562-2.965 1.124-4.377 1.687.565-.844 1.553-.984 2.542-1.125-.424-.421-1.13 0-1.412-.281-.424.141-.989.281-1.412.281-1.412.422-2.542 1.406-4.095 1.546-.706 0-1.27.281-1.977.562-1.835.562-3.67.844-5.365 1.265-.141 0-.283.141-.565.141-.847.281-1.694.562-2.542.421-.423.422-.847.422-1.553.422.424-.281.847-.422 1.271-.562.988-.562 1.977-.562 2.965-.843.989-.563 1.977-.703 3.106-.984.142 0 .142 0 .283-.141.988-.421 1.977-.702 2.965-1.124.141-.281.989-.562.283-.843-.848.14-1.412.702-2.26.702-.282.141-.564.141-.988 0 .424-.14.847-.281 1.13-.421 1.412-.281 2.682-1.265 4.094-1.546.424-.141.847-.422 1.271-.562-.565-.281-1.13.14-1.694.281-.706.281-1.553.703-2.4.703.705-.422 1.411-.844 2.258-.844.848 0 1.412-.562 2.118-.281.848-.281 1.554-.562 2.4-.843.424-.421.848-.421 1.272-.421.423-.141.706-.422 1.13-.281.705-.141 1.552-.282 2.258-.422 0 .14-.14.14-.282.281.141 0 .282-.141.282-.281.424-.562.989-.703 1.695-.703l1.27-.421c.565-.281 1.412-.422 1.836-.844-.565 0-.988.141-1.553.141-1.412.562-2.824.703-4.236.703-.424.14-.706.281-1.13.14-.282 0-.564.141-.847.141-.565.281-1.13.281-1.553 0-.424.14-.706.14-1.13.281-2.541.562-5.083 1.686-7.765 2.108-1.412.281-2.683.562-3.954.983.706-.421.988-.983 1.553-1.545.424-.422.989-.562 1.553-.703 0 0 .141-.141.283-.141.423-.562.706-1.124 1.694-1.264l.706-.703c.565-.843 1.553-1.124 2.4-1.546.142-.14.424-.14.565-.281h.565c.565-.14.988-.281 1.553-.14 1.412-.563 2.965-.984 4.377-1.265 1.695-.562 3.248-1.125 4.942-1.546.424-.422.989-.422 1.553-.562.424-.281.989-.422.706-.843-.282-.563-1.27.281-1.694 0 .706-.141 1.27-.422 1.836-.563 1.27-.281 1.835-1.124 2.824-1.545v-.281c-.706-.703.14-1.546 0-2.39v-.281c-.142-1.545-.142-1.545 2.259-2.248.847-.562 1.553-1.405 2.824-1.405.565-.563 1.27-.844 2.118-.984q1.059 0 1.694-.843c0-.141-.141-.141-.141-.281-.282.14-.565.14-.706 0l.141-.281c.282 0 .424 0 .565.14.141 0 .424-.14.565-.14s.282-.141.282-.141c-.282-.562-.282-1.265-.988-1.686-.283 0-.565 0-.848.14q-.847.422-1.694.422c-1.412.702-2.824.702-4.095 1.124-.988.281-1.976.422-2.824.562-.423.141-.847.141-.282-.281s1.27-.562 1.977-.843c1.27-.422 2.541-.703 3.812-1.405h-.565c-2.118.421-4.094.843-6.212 1.405-.706.14-1.271.562-1.977.562.141 0 .141-.141.282-.141 0 .141-.14.141-.282.141-.565.141-1.27.562-1.836.422-.423.14-.988.421-1.412.421h-.282c-1.412.422-2.965.843-4.377 1.265-.424.281-.989.281-1.412.281 1.27-.422 2.541-.984 3.812-1.405.847-.562 1.694-.843 2.683-.984.565-.141.988-.422 1.553-.562-.282-.422-.988.14-1.553 0-.141 0-.424.14-.565.14-.706.281-1.553.422-2.26.563-.846.14-1.693.843-2.4.281-.423.281-.847.562-1.411.562h-.283c-.847.281-1.694.562-2.541.562-.142 0-.142 0-.283.14a6.4 6.4 0 0 1-2.259.422c-.282 0-.565.14-.847.14-.847.141-1.694.563-2.542.563-.282.14-.565.14-.847.14-.565.141-1.13.562-1.694.422-3.53.562-3.389.562-3.248-1.968.141-.421.565-.562.847-.983.142-1.125.989-1.265 1.695-1.265m-3.954 45.111s.141 0 .141.14zm11.579-3.233h-.282zm16.66 5.341c.142 0 .142-.141 0 0 .142-.141 0-.141 0 0m91.497-5.762c-.141 0-.141 0-.141-.141-.141.141 0 .281.141.141m-94.32-47.641q.212 0 0 0m-11.578 25.296s-.142 0-.142.141c0-.141 0-.141.142-.141m26.404-18.55c.282.14.564-.141.988-.281.282-.141.706-.281.988-.281.565-.141 1.13-.281 1.554-.141v-.14a4.2 4.2 0 0 1 1.13-.562h.282c.423-.422.988-.422 1.553-.422.706-.422 1.412-.703 1.977-1.124.282-.141.423-.422.706-.562-.848 0-1.695.421-2.542.562-1.694.562-3.53.983-5.224 1.546-.565.14-.989.421-1.553.562-.283.14-.142.421-.142.562.283.14.283.14.283.281m-14.967-.562q.21-.211 0 0c.14-.141 0-.141 0 0m-14.544-.281h-.14c0 .14 0 .14.14 0-.14.14 0 .14 0 0m226.482-84.6s-.141 0-.141.14c0 0 .141 0 .141-.14q0 .21 0 0m6.636 16.02q.211.21 0 0 .211 0 0 0M123.332 192.055h-.706c.282-.14.423-.14.706 0m-32.9 6.605c0 .141-.14.282-.282.422.141-.281.141-.422.282-.422m-54.643 4.216c.141-.14.423-.14.565-.14-.142 0-.424.14-.565.14m-4.801-51.856h-.141s0 .141.141.141zM143.24 94.666c-.282.141-.423.282-.706.282-.141 0-.282.14-.423.14-.424.14-.847.281-1.271.562-.706.281-1.271.843-1.977.562v-.14c-.564.14-.847.562-1.412.703-.141.14-.282.421-.423.562-.565.421-1.13.14-1.695.421-.282.14-.423.14-.706.14-.423.282-.706.563-1.27.563-.142.14-.424.281-.565.421h-.141c0 .141-.142.422-.283.563 0-.14-.141-.281-.141-.422h-.141c-.706.281-1.271.14-1.836.281-.988.281-1.835.703-2.683 1.124-.141 0-.282.141-.423.141h-.141l-.283.281c.424 0 .706-.141 1.13-.141 1.553-.562.565.422.565.703l.141.141h.282c.424-.281.847-.563.847-.984.424-.562.989-.422 1.554-.562.141-.562.564-.703 1.129-.562l.141.14c.706 0 1.836-.703 1.554.422.423 0 .988.281 1.412-.281 0-.14.141-.281.423-.281.283-.281.847-.281 1.271-.562l1.271-.422c.565-.562.847-.281 1.129-.14.283-.141.283-.282.283-.422-.142-.14-.424-.281-.565-.422 0-.14.141-.14.141-.28.282-.141.424.14.706.14h.565c.988-.422 1.835-1.265 2.965-1.546.424-.14.988 0 1.13-.562 0-.14.706.14.988-.14.282-.282.424-.563.706-.844-.141 0-.141 0 0-.14-.424.14-.706 0-.988 0-.142 0-.424.14-.565.28-.424.141-.706.281-1.13.281v-.14c-.282.14-.423.14-.565.14m63.257-11.804q.211 0 0 0M47.226 207.514q0 .212 0 0m40.241-91.065q0-.21 0 0M227.96 73.446q-.211 0 0 0-.211.21 0 0m24.286 51.294c-.141 0-.141-.14-.282-.14 0 0 .141.14.282.14m-162.52 72.656h.283zm-55.773-28.247c-.141 0-.282 0-.282.14.141-.14.282-.14.282-.14m-2.118.983q0 .211 0 0c.141.141.141 0 0 0m14.261-26.42h-.282zm109.287-52.7c-.141.282-.282.282-.564.282q-.424.42-.848.421c-.141 0-.282.14-.564.14-.283.141-.565.282-.565.563 0 .14-.141.281-.282.422-.424.702-1.412.843-2.118 1.124.141.28.282.421 0 .843l.141.14c.565-.28 1.271-.14 1.694-.843.424.281-.141.703.141.984l.142.14c.282 0 .423.141.423.282h.565c1.129-1.406 3.247-1.406 4.659-2.249.142-.421-.141-.421-.706-.28l-1.694.42c-.565.141-1.13.422-1.553.563h-.565c.141-.281.565-.281.988-.281.142 0 .283-.14.424-.14.706-.703 1.553-1.125 2.542-1.125.282 0 .423-.14.706-.281.423-.281.706-.703.988 0 .282.562.847-.14 1.271-.422.423-.562.565-1.124 1.412-1.124.423-.14.847-.421 1.412-.281.423 0 .565-.281.988-.562 0-.14.141-.14.141-.281 0-.281-.141-.562-.706-.422-.423 0-.706.14-1.129.422h-.565c-.141 0-.424.14-.565.14-.565.281-1.129.422-1.694.703-.706.281-.565 0-.424-.281-.423 0-.847 0-1.271.14-.141 0-.141.141-.282.141-.282.14-.565.14-.847.281h-.424zM49.626 177.44c.141 0 .283-.14.424-.14-.141.14-.283.14-.424.14m112.535-86.006q0-.21 0 0h.141c-.141-.14-.141-.14-.141 0m39.112-20.236q0 .21 0 0M63.181 131.205h.424c0-.141-.141-.141-.141-.141-.142.141-.283.141-.283.141M165.41 90.029q0-.21 0 0m-55.21 19.112c0 .141-.141.141 0 0m35.3-7.448q0-.21 0 0m-21.039 7.589c-.141 0-.141 0-.282.14 0 0 .141-.14.282-.14m115.076 9.135q.213 0 0 0m-112.534 66.612h-.142zm26.545-86.85q0 .212 0 0m-40.242 10.681c.283-.14.424 0 .424.141 0 0-.141-.141-.424-.141m-48.148 88.114c.141-.14.424-.14.706-.281-.282.141-.424.141-.706.281m91.214-99.637c-.283.28-.706.421-1.13.421.424-.14.847-.28 1.13-.421m-44.76 11.242h-.282zm-27.251 16.724s-.141 0-.141.14c0-.14 0-.14.14-.14m157.577 2.81c.282-.281 0-.281-.141-.421 0 .281.141.421.141.421m-99.686-26.42c.141.141 0 .141 0 0m-13.273 3.654v.141c-.141 0 0 0 0-.141m56.056-27.263c0 .14-.141.14-.141.14.141 0 .141 0 .141-.14m-60.009 26.139h-.141zm-62.55 28.387q-.213.212-.424 0zm-11.438 13.632h-.141zm11.72 51.435s.14 0 .14.14c.142 0 0-.14-.14-.14m46.736-7.73q.212 0 0 0m22.168-4.918q-.211 0 0 0m9.602-6.746c.141-.14.282-.14.423-.14-.141 0-.282.14-.423.14m84.012-99.497c-.706 0-.988-.14-1.129-.28.282.14.847.14 1.129.28m-57.467 4.919q0 .21 0 0c.141.14 0 .14 0 0m-76.812 30.917c.141.141 0 .141-.141.281.141 0 .141-.14.141-.281m-8.895 8.01-.424.422c.141-.281.282-.281.424-.422m-5.366 3.233q.212 0 0 0m0 .562c.424 0 .424-.141.424-.281-.141.14-.283.281-.424.281m-29.369 36.96q.212 0 0 0m2.118-2.108q-.211 0 0 0m26.686 38.927c0 .141-.14.141 0 0m67.493-21.642q0-.21 0 0c0-.14-.141-.14 0 0m100.109-49.327c.142-.14.283-.421.565-.421-.141.14-.423.281-.565.421M230.36 75.554l.282-.28c0 .14-.141.14-.282.28m-29.934-2.389q-.213-.21 0 0M58.239 130.924l-.282.281c0-.141.141-.141.282-.281m-9.601 16.583h.423c-.282 0-.423-.141-.706-.281 0 .14.142.14.283.281m-.283 3.091h.283zm.989 12.227q.211 0 0 0c0-.141 0-.141-.141-.281.14.14.14.281.14.281m195.7-64.224h-.141zm-9.037-24.171h-.282zM107.94 107.033q0-.21 0 0m-1.694.984v.141c.141-.141-.142-.141 0-.141M86.62 122.492c.141 0 .424-.141.565 0zm-2.965-.562h-.282zm-36.57 23.75h-.283zm-6.92 4.075q-.21 0 0 0m6.496 1.968c-.141 0-.282 0-.282-.141.14.141.14.141.282.141m.988 26.56c-.14-.14-.14 0-.282-.14 0 0 .141 0 .141.14zq-.21 0 0 0m6.072 23.048c.141 0 .141-.141 0 0q.212-.212 0 0 0-.212 0 0m66.504-9.978q-.212 0 0 0m24.427-12.086c.142 0 .283-.141.424 0q-.211-.211-.424 0m.565-1.265q0-.21 0 0m102.651-65.488q-.211 0 0 0c0 .141-.141.141 0 0-.141 0 0 .141 0 0m-37.276-29.09q-.211.21 0 0c0 .14-.141.14 0 0m-17.791-8.713q-.211 0 0 0m-56.762 25.155q-.212 0 0 0v.141c0-.14-.141-.14 0-.14m-35.582 9.556c0 .141.142.141.142.281-.142 0-.283-.14-.142-.281m-10.872 4.638c0 .141.141.141.141.281-.14-.14-.14-.14-.14-.281M74.478 124.32q-.212 0 0 0m-27.675 13.632q.212-.211 0 0 0-.211 0 0m2.542 12.226q-.211 0 0 0M34.236 166.76h.423v-.141c-.141 0-.282 0-.423.141m4.236 1.264q0 .212 0 0m9.742-4.216q0 .212 0 0m-.847 15.6q0 .21 0 0c.141.14 0 .14 0 0q.212.21 0 0 .212 0 0 0m-2.4 6.183q.21-.212 0 0m.564 16.161q.213 0 0 0m8.472.703h.142zm15.109 1.265c.282 0 .423 0 .423.281-.282-.141-.423-.141-.423-.281m77.658-28.247c.142 0 .142-.141 0 0m8.19 0h.141zm2.683-.141-.142.141c0-.141 0-.141.142-.141m92.625-58.742.142-.141c-.142 0-.142.141-.142.141m-2.4-9.276c.141 0 .283 0 .283-.14q0-.212 0 0h-.142s0 .14-.141.14m-1.271-17.144q0-.212 0 0m-4.518-10.26q.211 0 0 0m-31.346-.561q0 .21 0 0m-45.748 6.183h-.141v.14zm-48.572 17.285q-.212 0 0 0m-20.615 8.573q0-.212 0 0m-52.526 25.858h-.14c0 .14.14.14.14 0m2.26 16.021.14-.141zm.282-.141c.988-.281 1.977-.703 2.824-1.265-.141 0-.283 0-.424-.14-.565.702-1.694.843-2.4 1.405m-11.155 11.805c.283-.141.424 0 .565 0zm5.79 2.529c0-.14-.142-.14 0 0q-.213-.21 0 0-.213 0 0 0m15.955 24.734q-.213 0 0 0m-14.12 9.697q.211 0 0 0m145.293-36.117q0-.211 0 0m15.814-8.151q.212 0 0 0m36.711-13.069q.212 0 0 0m6.778-61.413c-.141 0-.141.14-.141.14 0 .14.141.14.141.281zm-9.037-11.383h-.282c0 .14-.142.14-.142.14.142 0 .283 0 .424-.14m-69.046 9.275c0 .14 0 .28-.282.28.141 0 .282-.14.282-.28m-63.256 25.998h.141c0-.14 0-.14-.141 0q0-.21 0 0m-40.242 18.691c.141 0 .283.141.424.141-.141.14-.283 0-.424-.141m-38.688 23.469c-.141 0-.141.141-.283.141.142 0 .142 0 .283-.141m-1.836 22.204c.424-.281.706-.562 1.13-.702h-.141c-.424.281-.706.421-.989.702m-3.67 0h-.142c0 .141 0 .141.141 0m-1.836 6.746c.14.14.14 0 0 0 .14.14 0 .14 0 0m26.404 1.967c.14 0 .14-.14 0 0q.21-.21 0 0m77.517 12.227q.213-.212 0 0m34.029-15.319c-.282 0-.282-.14-.282-.281.141 0 .282.141.282.281m83.73-106.664c-.141 0-.282.14-.282.14h.141c0-.14.141-.14.141-.14m-48.007-.421q.212 0 0 0M85.208 118.979q.212-.211 0 0m-7.483 2.389c0 .14-.283.281-.424.281.141 0 .282-.141.424-.281m-32.476 14.193v.141zq0 .211 0 0m-33.464 21.642q-.212 0 0 0m12.143 20.378c-.141 0-.282 0-.282.14.141 0 .282-.14.282-.14m24.851-8.292c.141 0 0 .141 0 .141.282-.141.424-.141.706-.281.141 0 .282-.141.424-.141l.14-.14c0-.563-.564-.422-.988-.563-.282 0-.564.141-.988.141-.282 0-.424.141-.706.281-.141-.281.141-.422.424-.562-.142.14-.283.281-.424.562-.706.281-1.27.281-1.977.422-.847.281-.847.562.283.702-1.13.281-1.695.422-2.4.562l-.142-.14c-.423 0-.706-.141-1.27-.141.423-.421.988-.281 1.27-.421l2.118-.843c.141-.281 0-.422-.282-.281-.283 0-.706.14-.989.14v-.14c.283-.141.565-.141.847-.282.565 0 1.13-.281 1.695-.421.141-.141.282-.281.565-.422-.142-.14-.283-.14-.424-.281-.706.141-1.27.562-1.977.562.424-.14.847-.281 1.695-.702h-.142c-.564.281-.988.562-1.694.702q-.848.422-1.694.422c-.424.14-.706.281-.847-.141-.142 0-.142 0-.283.141-.847.703-.706 1.546-1.27 2.389h.14c0 .562-.564 1.124-.706 1.686v.141c.142 0 .283 0 .424.14h.141s-.14 0 0-.281c.989-.421 1.977-.843 3.107-.843.14 0 .14-.14.282-.14.141-.141.282-.141.424-.281h-.706q.635-.633 1.27-.422c.142 0 .142-.141.283-.141 1.13-.421 2.259-1.124 3.671-1.124m-16.097 18.269q-.21 0 0 0m16.803-1.826c.282-.282.424-.141.706-.141-.282-.141-.565 0-.706.141q-.211 0 0 0m3.248 7.167.14-.141c-.14 0-.14 0-.14.141q0-.212 0 0m91.919-11.665-.141.141c.141 0 .141 0 .141-.141m27.252-11.383q0-.21 0 0h-.142zm7.907-.702c.141 0 0 .14 0 .14.141 0 .141 0 0-.14q.211 0 0 0m24.427-8.432q.211 0 0 0m42.642-21.08c-.141 0 0-.141 0-.141v.422c.141-.141.141-.281 0-.281m6.777-24.312h-.282zm-11.437-39.63.141-.14c0 .14 0 .14-.141.14m-36.429-.984s.141 0 .141-.14zm-38.406 5.48q.212-.21 0 0m-81.188 34.15.14.141c0-.141-.14-.141-.14-.141m-2.966 2.249c.142-.141.283 0 .283.14-.141-.14-.283-.14-.283-.14M41.72 139.637q.212 0 0 0m-28.946 13.632c.142 0 .283-.141.565-.141l.142-.141-.142.141c-.282.141-.423.281-.564.141" fill="#2250D2"/><path d="M90.894 172.109q-6.472 0-10.206-1.992-3.735-1.99-5.31-5.808-1.578-3.9-1.577-9.542v-1.079h12.944q0 4.066.664 6.057.747 1.91 3.568 1.909 1.909 0 2.821-1.162t1.162-4.066q.332-2.987.332-8.132v-5.974q-1.08 1.743-3.32 2.655-2.156.913-4.895 1.079-5.311.083-8.546-2.655-3.237-2.738-4.647-7.385t-1.41-10.123q0-7.054 1.742-12.115 1.825-5.145 5.891-7.966t10.787-2.821q6.639 0 10.704 2.655 4.066 2.656 5.892 7.468 1.908 4.73 1.908 11.202v25.059q0 6.555-1.576 11.7-1.494 5.144-5.477 8.132-3.983 2.904-11.45 2.904m.166-36.676q1.66 0 2.655-.913.996-.912 1.577-1.742v-10.953q0-2.324-.332-4.232-.331-1.992-1.245-3.153-.913-1.245-2.82-1.245-1.826 0-2.74 1.328-.912 1.244-1.244 3.817-.249 2.489-.249 6.223 0 3.236.166 5.725.249 2.407 1.162 3.817.913 1.328 3.07 1.328" fill="#001C6C"/><path d="M90.382 172.109q-6.472 0-10.206-1.992-3.735-1.99-5.31-5.808-1.578-3.9-1.577-9.542v-1.079h12.944q0 4.066.664 6.057.747 1.91 3.568 1.909 1.909 0 2.821-1.162t1.162-4.066q.332-2.987.332-8.132v-5.974q-1.08 1.743-3.32 2.655-2.157.913-4.895 1.079-5.31.083-8.547-2.655-3.236-2.738-4.646-7.385t-1.411-10.123q0-7.054 1.743-12.115 1.825-5.145 5.89-7.966 4.067-2.821 10.788-2.821 6.637 0 10.704 2.655 4.066 2.656 5.891 7.468 1.91 4.73 1.909 11.202v25.059q0 6.555-1.577 11.7-1.493 5.144-5.476 8.132-3.983 2.904-11.451 2.904m.166-36.676q1.659 0 2.655-.913.996-.912 1.577-1.742v-10.953q0-2.324-.332-4.232-.332-1.992-1.245-3.153-.913-1.245-2.821-1.245-1.826 0-2.738 1.328-.913 1.244-1.245 3.817-.249 2.489-.249 6.223 0 3.236.166 5.725.249 2.407 1.162 3.817.913 1.328 3.07 1.328" fill="#001C6C"/><path d="M89.87 172.109q-6.472 0-10.207-1.992-3.733-1.99-5.31-5.808-1.577-3.9-1.577-9.542v-1.079h12.945q0 4.066.664 6.057.746 1.91 3.568 1.909 1.908 0 2.82-1.162.915-1.161 1.163-4.066.33-2.987.331-8.132v-5.974q-1.078 1.743-3.319 2.655-2.157.913-4.895 1.079-5.31.083-8.547-2.655-3.236-2.738-4.647-7.385-1.41-4.647-1.41-10.123 0-7.054 1.742-12.115 1.825-5.145 5.892-7.966 4.065-2.821 10.787-2.821 6.637 0 10.704 2.655 4.065 2.656 5.891 7.468 1.91 4.73 1.909 11.202v25.059q0 6.555-1.577 11.7-1.494 5.144-5.476 8.132-3.984 2.904-11.451 2.904m.166-36.676q1.659 0 2.655-.913.996-.912 1.576-1.742v-10.953q0-2.324-.331-4.232-.333-1.992-1.245-3.153-.913-1.245-2.821-1.245-1.825 0-2.739 1.328-.912 1.244-1.244 3.817-.25 2.489-.25 6.223 0 3.236.167 5.725.249 2.407 1.162 3.817.912 1.328 3.07 1.328" fill="#001C6C"/><path d="M89.358 172.109q-6.472 0-10.207-1.992-3.734-1.99-5.31-5.808-1.577-3.9-1.577-9.542v-1.079H85.21q0 4.066.663 6.057.747 1.91 3.569 1.909 1.908 0 2.82-1.162.914-1.161 1.162-4.066.332-2.987.332-8.132v-5.974q-1.078 1.743-3.319 2.655-2.157.913-4.895 1.079-5.31.083-8.547-2.655-3.236-2.738-4.647-7.385-1.41-4.647-1.41-10.123 0-7.054 1.742-12.115 1.825-5.145 5.891-7.966 4.067-2.821 10.788-2.821 6.637 0 10.704 2.655 4.065 2.656 5.891 7.468 1.908 4.73 1.908 11.202v25.059q0 6.555-1.576 11.7-1.493 5.144-5.477 8.132-3.983 2.904-11.45 2.904m.165-36.676q1.66 0 2.656-.913.996-.912 1.576-1.742v-10.953q0-2.324-.332-4.232-.331-1.992-1.244-3.153-.914-1.245-2.822-1.245-1.825 0-2.738 1.328-.912 1.244-1.244 3.817-.25 2.489-.25 6.223 0 3.236.167 5.725.249 2.407 1.161 3.817.913 1.328 3.07 1.328" fill="#001C6C"/><path d="M88.845 172.109q-6.472 0-10.206-1.992-3.735-1.99-5.31-5.808-1.577-3.9-1.577-9.542v-1.079h12.944q0 4.066.664 6.057.748 1.91 3.568 1.909 1.909 0 2.822-1.162.912-1.161 1.161-4.066.332-2.987.332-8.132v-5.974q-1.078 1.743-3.319 2.655-2.157.913-4.896 1.079-5.31.083-8.546-2.655-3.237-2.738-4.647-7.385t-1.41-10.123q0-7.054 1.742-12.115 1.825-5.145 5.891-7.966t10.787-2.821q6.639 0 10.704 2.655 4.067 2.656 5.892 7.468 1.908 4.73 1.908 11.202v25.059q0 6.555-1.576 11.7-1.494 5.144-5.477 8.132-3.983 2.904-11.45 2.904m.166-36.676q1.66 0 2.656-.913.995-.912 1.576-1.742v-10.953q0-2.324-.332-4.232-.332-1.992-1.245-3.153-.912-1.245-2.82-1.245-1.826 0-2.739 1.328-.912 1.244-1.245 3.817-.248 2.489-.248 6.223 0 3.236.165 5.725.25 2.407 1.162 3.817.913 1.328 3.07 1.328" fill="#001C6C"/><path d="M88.333 172.109q-6.472 0-10.206-1.992-3.735-1.99-5.31-5.808-1.578-3.9-1.577-9.542v-1.079h12.944q0 4.066.664 6.057.747 1.91 3.568 1.909 1.909 0 2.821-1.162t1.162-4.066q.332-2.987.332-8.132v-5.974q-1.08 1.743-3.32 2.655-2.156.913-4.895 1.079-5.31.083-8.547-2.655-3.236-2.738-4.646-7.385t-1.41-10.123q0-7.054 1.742-12.115 1.825-5.145 5.891-7.966t10.787-2.821q6.639 0 10.704 2.655 4.067 2.656 5.892 7.468 1.908 4.73 1.908 11.202v25.059q0 6.555-1.577 11.7-1.493 5.144-5.476 8.132-3.983 2.904-11.45 2.904m.166-36.676q1.66 0 2.655-.913.996-.912 1.577-1.742v-10.953q0-2.324-.332-4.232-.332-1.992-1.245-3.153-.913-1.245-2.82-1.245-1.826 0-2.74 1.328-.912 1.244-1.244 3.817-.249 2.489-.249 6.223 0 3.236.166 5.725.249 2.407 1.162 3.817.913 1.328 3.07 1.328" fill="#001C6C"/><path d="M87.82 172.109q-6.471 0-10.205-1.992-3.735-1.99-5.31-5.808-1.578-3.9-1.577-9.542v-1.079h12.944q0 4.066.664 6.057.747 1.91 3.568 1.909 1.909 0 2.821-1.162t1.162-4.066q.332-2.987.332-8.132v-5.974q-1.08 1.743-3.32 2.655-2.157.913-4.895 1.079-5.31.083-8.547-2.655-3.236-2.738-4.646-7.385T69.4 125.891q0-7.054 1.742-12.115 1.826-5.145 5.892-7.966 4.065-2.821 10.787-2.821 6.637 0 10.704 2.655 4.066 2.656 5.891 7.468 1.91 4.73 1.909 11.202v25.059q0 6.555-1.577 11.7-1.493 5.144-5.476 8.132-3.984 2.904-11.451 2.904m.167-36.676q1.659 0 2.655-.913.996-.912 1.577-1.742v-10.953q0-2.324-.332-4.232-.332-1.992-1.245-3.153-.912-1.245-2.821-1.245-1.826 0-2.738 1.328-.913 1.244-1.245 3.817-.249 2.489-.249 6.223 0 3.236.166 5.725.249 2.407 1.162 3.817.913 1.328 3.07 1.328" fill="#001C6C"/><path d="M87.309 172.109q-6.472 0-10.206-1.992-3.735-1.99-5.311-5.808-1.577-3.9-1.577-9.542v-1.079H83.16q0 4.066.664 6.057.747 1.91 3.568 1.909 1.908 0 2.82-1.162.915-1.161 1.163-4.066.331-2.987.332-8.132v-5.974q-1.08 1.743-3.32 2.655-2.157.913-4.895 1.079-5.31.083-8.547-2.655-3.236-2.738-4.647-7.385-1.41-4.647-1.41-10.123 0-7.054 1.742-12.115 1.826-5.145 5.892-7.966 4.065-2.821 10.787-2.821 6.638 0 10.704 2.655 4.065 2.656 5.891 7.468 1.909 4.73 1.909 11.202v25.059q0 6.555-1.577 11.7-1.494 5.144-5.476 8.132-3.984 2.904-11.451 2.904m.166-36.676q1.659 0 2.655-.913.996-.912 1.577-1.742v-10.953q0-2.324-.332-4.232-.333-1.992-1.245-3.153-.913-1.245-2.821-1.245-1.825 0-2.739 1.328-.912 1.244-1.244 3.817-.25 2.489-.25 6.223 0 3.236.167 5.725.249 2.407 1.162 3.817.912 1.328 3.07 1.328" fill="#001C6C"/><path d="M86.797 172.109q-6.472 0-10.207-1.992-3.734-1.99-5.31-5.808-1.577-3.9-1.577-9.542v-1.079h12.945q0 4.066.663 6.057.748 1.91 3.568 1.909 1.909 0 2.822-1.162.912-1.161 1.161-4.066.333-2.987.332-8.132v-5.974q-1.078 1.743-3.319 2.655-2.157.913-4.895 1.079-5.31.083-8.547-2.655t-4.647-7.385-1.41-10.123q0-7.054 1.742-12.115 1.825-5.145 5.891-7.966 4.067-2.821 10.787-2.821 6.639 0 10.705 2.655 4.065 2.656 5.891 7.468 1.908 4.73 1.908 11.202v25.059q0 6.555-1.576 11.7-1.493 5.144-5.477 8.132-3.983 2.904-11.45 2.904m.165-36.676q1.66 0 2.656-.913.996-.912 1.576-1.742v-10.953q0-2.324-.332-4.232-.331-1.992-1.244-3.153-.914-1.245-2.822-1.245-1.826 0-2.738 1.328-.912 1.244-1.244 3.817-.25 2.489-.25 6.223 0 3.236.167 5.725.249 2.407 1.161 3.817.913 1.328 3.07 1.328" fill="#001C6C"/><path d="M86.284 172.109q-6.472 0-10.206-1.992-3.735-1.99-5.31-5.808-1.578-3.9-1.577-9.542v-1.079h12.944q0 4.066.664 6.057.747 1.91 3.568 1.909 1.909 0 2.822-1.162.912-1.161 1.161-4.066.332-2.987.332-8.132v-5.974q-1.078 1.743-3.319 2.655-2.157.913-4.896 1.079-5.31.083-8.546-2.655-3.237-2.738-4.647-7.385t-1.41-10.123q0-7.054 1.742-12.115 1.825-5.145 5.891-7.966t10.787-2.821q6.639 0 10.704 2.655 4.066 2.656 5.892 7.468 1.908 4.73 1.908 11.202v25.059q0 6.555-1.576 11.7-1.494 5.144-5.477 8.132-3.983 2.904-11.45 2.904m.166-36.676q1.66 0 2.656-.913.995-.912 1.576-1.742v-10.953q0-2.324-.332-4.232-.332-1.992-1.244-3.153-.914-1.245-2.822-1.245-1.826 0-2.738 1.328-.913 1.244-1.245 3.817-.249 2.489-.249 6.223 0 3.236.166 5.725.25 2.407 1.162 3.817.913 1.328 3.07 1.328" fill="#001C6C"/><path d="M85.772 172.109q-6.472 0-10.206-1.992-3.735-1.99-5.31-5.808-1.578-3.9-1.577-9.542v-1.079h12.944q0 4.066.664 6.057.747 1.91 3.568 1.909 1.909 0 2.821-1.162t1.162-4.066q.332-2.987.332-8.132v-5.974q-1.08 1.743-3.32 2.655-2.156.913-4.895 1.079-5.311.083-8.546-2.655-3.237-2.738-4.647-7.385t-1.41-10.123q0-7.054 1.742-12.115 1.825-5.145 5.891-7.966t10.787-2.821q6.639 0 10.704 2.655 4.066 2.656 5.892 7.468 1.908 4.73 1.908 11.202v25.059q0 6.555-1.577 11.7-1.492 5.144-5.476 8.132-3.983 2.904-11.45 2.904m.166-36.676q1.66 0 2.655-.913.996-.912 1.577-1.742v-10.953q0-2.324-.332-4.232-.331-1.992-1.245-3.153-.913-1.245-2.82-1.245-1.826 0-2.74 1.328-.912 1.244-1.244 3.817-.249 2.489-.249 6.223 0 3.236.166 5.725.249 2.407 1.162 3.817.912 1.328 3.07 1.328" fill="#001C6C"/><path d="M85.26 172.109q-6.473 0-10.206-1.992-3.735-1.99-5.31-5.808-1.578-3.9-1.578-9.542v-1.079h12.945q0 4.066.664 6.057.747 1.91 3.568 1.909 1.908 0 2.821-1.162t1.162-4.066q.332-2.987.332-8.132v-5.974q-1.08 1.743-3.32 2.655-2.157.913-4.895 1.079-5.31.083-8.547-2.655-3.236-2.738-4.647-7.385-1.41-4.647-1.41-10.123 0-7.054 1.742-12.115 1.825-5.145 5.892-7.966 4.065-2.821 10.787-2.821 6.638 0 10.704 2.655 4.065 2.656 5.891 7.468 1.91 4.73 1.909 11.202v25.059q0 6.555-1.577 11.7-1.493 5.144-5.476 8.132-3.983 2.904-11.451 2.904m.166-36.676q1.659 0 2.655-.913.996-.912 1.577-1.742v-10.953q0-2.324-.332-4.232-.332-1.992-1.245-3.153-.913-1.245-2.821-1.245-1.826 0-2.738 1.328-.913 1.244-1.245 3.817-.249 2.489-.249 6.223 0 3.236.166 5.725.249 2.407 1.162 3.817.912 1.328 3.07 1.328" fill="#fff"/><path d="M119.279 172.109v-47.961h13.525v47.961zm-.083-56.093v-9.376h13.608v9.376zm21.96 56.093v-47.961h13.525v4.813q2.655-2.656 5.477-4.149 2.904-1.494 6.057-1.494 2.987 0 4.896 1.494 1.99 1.41 2.987 3.983.996 2.489.996 5.725v37.589h-13.443v-35.68q0-1.743-.58-2.656-.582-.912-2.158-.912-.83 0-1.991.497-1.078.416-2.241 1.245v37.506z" fill="#001C6C"/><path d="M119.791 172.109v-47.961h13.526v47.961zm-.083-56.093v-9.376h13.609v9.376zm21.96 56.093v-47.961h13.525v4.813q2.656-2.656 5.477-4.149 2.904-1.494 6.057-1.494 2.988 0 4.896 1.494 1.991 1.41 2.987 3.983.996 2.489.996 5.725v37.589h-13.442v-35.68q0-1.743-.581-2.656-.581-.912-2.158-.912-.83 0-1.991.497-1.078.416-2.241 1.245v37.506z" fill="#001C6C"/><path d="M120.304 172.109v-47.961h13.525v47.961zm-.083-56.093v-9.376h13.608v9.376zm21.959 56.093v-47.961h13.526v4.813q2.655-2.656 5.476-4.149 2.904-1.494 6.058-1.494 2.987 0 4.895 1.494 1.992 1.41 2.987 3.983.996 2.489.996 5.725v37.589h-13.442v-35.68q0-1.743-.581-2.656-.58-.912-2.157-.912-.83 0-1.992.497-1.079.416-2.24 1.245v37.506z" fill="#001C6C"/><path d="M120.816 172.109v-47.961h13.525v47.961zm-.083-56.093v-9.376h13.608v9.376zm21.96 56.093v-47.961h13.525v4.813q2.656-2.656 5.476-4.149 2.905-1.494 6.058-1.494 2.987 0 4.895 1.494 1.992 1.41 2.988 3.983.995 2.489.995 5.725v37.589h-13.442v-35.68q0-1.743-.581-2.656-.58-.912-2.157-.912-.83 0-1.992.497-1.079.416-2.24 1.245v37.506z" fill="#001C6C"/><path d="M119.279 172.109v-47.961h13.525v47.961zm-.083-56.093v-9.376h13.608v9.376zm21.96 56.093v-47.961h13.525v4.813q2.655-2.656 5.477-4.149 2.904-1.494 6.057-1.494 2.987 0 4.896 1.494 1.99 1.41 2.987 3.983.996 2.489.996 5.725v37.589h-13.443v-35.68q0-1.743-.58-2.656-.582-.912-2.158-.912-.83 0-1.991.497-1.078.416-2.241 1.245v37.506z" fill="#fff"/><path d="M195.637 172.109v-53.521q-.913.498-2.074.996-1.162.498-2.489 1.079l-2.49.996a41 41 0 0 0-2.157.995v-10.289a86 86 0 0 1 2.572-1.327 368 368 0 0 0 3.568-1.992 67 67 0 0 0 3.568-2.157q1.66-1.163 2.489-1.992h10.871v67.212z" fill="#001C6C"/><path d="M196.149 172.109v-53.521q-.912.498-2.074.996t-2.489 1.079l-2.49.996a41 41 0 0 0-2.157.995v-10.289a86 86 0 0 1 2.572-1.327 356 356 0 0 0 3.568-1.992 67 67 0 0 0 3.568-2.157q1.66-1.163 2.49-1.992h10.87v67.212z" fill="#001C6C"/><path d="M196.662 172.109v-53.521q-.913.498-2.075.996-1.161.498-2.489 1.079l-2.489.996q-1.162.498-2.158.995v-10.289a87 87 0 0 1 2.572-1.327 367 367 0 0 0 3.569-1.992 68 68 0 0 0 3.568-2.157q1.66-1.163 2.489-1.992h10.87v67.212z" fill="#001C6C"/><path d="M197.174 172.109v-53.521q-.913.498-2.075.996-1.161.498-2.489 1.079l-2.489.996q-1.162.498-2.158.995v-10.289a86 86 0 0 1 2.573-1.327 380 380 0 0 0 3.568-1.992 68 68 0 0 0 3.568-2.157q1.66-1.163 2.489-1.992h10.87v67.212z" fill="#001C6C"/><path d="M197.686 172.109v-53.521q-.912.498-2.074.996t-2.49 1.079l-2.489.996q-1.162.498-2.157.995v-10.289a86 86 0 0 1 2.572-1.327 368 368 0 0 0 3.568-1.992 67 67 0 0 0 3.568-2.157q1.66-1.163 2.489-1.992h10.87v67.212z" fill="#001C6C"/><path d="M198.198 172.109v-53.521q-.913.498-2.074.996-1.162.498-2.489 1.079l-2.49.996a41 41 0 0 0-2.157.995v-10.289a86 86 0 0 1 2.572-1.327 368 368 0 0 0 3.568-1.992 67 67 0 0 0 3.568-2.157q1.66-1.163 2.489-1.992h10.871v67.212z" fill="#001C6C"/><path d="M198.711 172.109v-53.521q-.913.498-2.075.996-1.161.498-2.489 1.079l-2.49.996a41 41 0 0 0-2.157.995v-10.289a87 87 0 0 1 2.572-1.327 356 356 0 0 0 3.568-1.992 67 67 0 0 0 3.568-2.157q1.66-1.163 2.49-1.992h10.87v67.212z" fill="#001C6C"/><path d="M199.223 172.109v-53.521q-.913.498-2.075.996-1.161.498-2.489 1.079l-2.489.996q-1.162.498-2.158.995v-10.289a86 86 0 0 1 2.573-1.327 380 380 0 0 0 3.568-1.992 68 68 0 0 0 3.568-2.157q1.66-1.163 2.489-1.992h10.87v67.212z" fill="#001C6C"/><path d="M199.735 172.109v-53.521q-.913.498-2.075.996-1.161.498-2.489 1.079l-2.489.996q-1.162.498-2.158.995v-10.289a86 86 0 0 1 2.573-1.327 380 380 0 0 0 3.568-1.992 68 68 0 0 0 3.568-2.157q1.66-1.163 2.489-1.992h10.87v67.212z" fill="#001C6C"/><path d="M200.247 172.109v-53.521q-.913.498-2.074.996-1.162.498-2.49 1.079l-2.489.996q-1.162.498-2.157.995v-10.289a86 86 0 0 1 2.572-1.327 368 368 0 0 0 3.568-1.992 67 67 0 0 0 3.568-2.157q1.66-1.163 2.489-1.992h10.87v67.212z" fill="#001C6C"/><path d="M200.759 172.109v-53.521q-.912.498-2.074.996t-2.489 1.079l-2.49.996a41 41 0 0 0-2.157.995v-10.289a86 86 0 0 1 2.572-1.327 356 356 0 0 0 3.568-1.992 67 67 0 0 0 3.568-2.157q1.66-1.163 2.49-1.992h10.87v67.212z" fill="#001C6C"/><path d="M201.272 172.109v-53.521q-.913.498-2.075.996-1.161.498-2.489 1.079l-2.49.996a41 41 0 0 0-2.157.995v-10.289a87 87 0 0 1 2.572-1.327 356 356 0 0 0 3.568-1.992 67 67 0 0 0 3.568-2.157q1.66-1.163 2.49-1.992h10.87v67.212z" fill="#fff"/><path d="m106.6 66.19-3.171 6.556m4.861-1.69-6.556-3.176m32.202 128.652-3.171 6.556m4.866-1.689-6.556-3.172" stroke="#FFF3EF" stroke-width="2" stroke-miterlimit="10" stroke-linecap="round" stroke-linejoin="round"/><path d="M58.175 166.574a5.026 5.026 0 1 0 0-10.052 5.026 5.026 0 0 0 0 10.052" stroke="#FFF3EF" stroke-opacity=".3" stroke-width="5" stroke-miterlimit="10" stroke-linecap="round" stroke-linejoin="round"/><path d="m171.37 58.707 10.052 7.348-2.725-11.01z" fill="#fff" fill-opacity=".3"/><g filter="url(#a)"><path d="M232.576 136.594v-1.107q.117-10.831 2.16-17.237 2.102-6.406 5.957-10.366t9.284-7.221a38 38 0 0 0 6.307-4.95 21 21 0 0 0 4.438-6.289q1.635-3.552 1.635-7.861 0-5.183-2.453-8.968t-6.54-5.824q-4.03-2.096-8.993-2.096-4.495 0-8.584 1.863-4.088 1.864-6.773 5.824-2.687 3.901-3.095 10.074h-17.752q.41-10.482 5.314-17.703 4.905-7.279 12.963-11.006Q234.562 50 244.371 50q10.745 0 18.803 4.018 8.059 3.96 12.497 11.123 4.496 7.104 4.496 16.596 0 6.523-2.044 11.764a29.2 29.2 0 0 1-5.839 9.259q-3.737 4.076-8.993 7.221-4.964 3.087-8.058 6.406-3.037 3.32-4.438 7.861-1.403 4.543-1.518 11.239v1.107zM241.393 172q-4.788 0-8.233-3.378-3.446-3.435-3.446-8.269 0-4.775 3.446-8.153 3.445-3.435 8.233-3.435 4.731 0 8.175 3.435 3.504 3.378 3.504 8.153 0 3.203-1.635 5.882a12.1 12.1 0 0 1-4.204 4.193q-2.628 1.572-5.84 1.572" fill="#FF693B"/></g><defs><filter id="a" x="204.167" y="50" width="80" height="130" filterUnits="userSpaceOnUse" color-interpolation-filters="sRGB"><feFlood flood-opacity="0" result="BackgroundImageFix"/><feColorMatrix in="SourceAlpha" values="0 0 0 0 0 0 0 0 0 0 0 0 0 0 0 0 0 0 127 0" result="hardAlpha"/><feOffset dy="4"/><feGaussianBlur stdDeviation="2"/><feComposite in2="hardAlpha" operator="out"/><feColorMatrix values="0 0 0 0 0 0 0 0 0 0 0 0 0 0 0 0 0 0 0.25 0"/><feBlend in2="BackgroundImageFix" result="effect1_dropShadow_29_1795"/><feBlend in="SourceGraphic" in2="effect1_dropShadow_29_1795" result="shape"/></filter></defs></svg>