<svg width="95" height="152" viewBox="0 0 95 152" fill="none" xmlns="http://www.w3.org/2000/svg"><path d="m84.349 36.079 9.766 9.577-.037-28.488c0-1.35-1.122-2.437-2.49-2.437l-89.118.17A2.465 2.465 0 0 0 0 17.354l.228 120.251c0 1.349 1.121 2.436 2.47 2.436l18.793-.037L9.425 128.14z" fill="#638BFF"/><path d="m94.308 137.437-.19-95.736-9.767-9.577-74.943 96.035 12.066 11.864 70.345-.131c1.387-.019 2.489-1.106 2.489-2.455" fill="#3A5BBD"/><path d="m72.34 14.739-50.602.1.032 15.312 50.601-.1z" fill="#1A45BF"/><path d="M12.279 30.156c-1.673 0-3.04 1.35-3.04 2.999v2.924h37.68v-5.923z" fill="#FF693B"/><path d="M84.349 33.155c0-1.65-1.216-2.999-2.888-2.999H46.897v5.923h37.452z" fill="#B5401D"/><path d="M75.722 34.543c.797 0 1.444-.638 1.444-1.425s-.647-1.425-1.444-1.425c-.798 0-1.445.638-1.445 1.425s.647 1.425 1.445 1.425m-4.312 0c.799 0 1.445-.638 1.445-1.425s-.647-1.425-1.444-1.425c-.798 0-1.444.638-1.444 1.425s.646 1.425 1.444 1.425m10.069-1.425c0 .788-.646 1.425-1.444 1.425a1.434 1.434 0 0 1-1.444-1.425c0-.787.646-1.425 1.444-1.425s1.444.638 1.444 1.425" fill="#fff"/><path d="M12.412 120.026v-5.698h34.526V85.802H12.412v-5.697h34.526v-5.698H12.412v-5.698h34.526v-5.697H12.412V43.089h34.526v-6.972h-37.7l.19 92.062 37.529-.075v-8.06H12.412zm0-17.112V91.519h22.65v17.093h-22.65z" fill="#FAFEFF"/><path d="m84.446 76.019-.038-19.96-.038-19.961H46.955v6.972H81.5v19.923H46.955v5.697H81.5v5.698H46.955v5.698H81.5v5.697H46.955v28.526H81.5v5.698H46.955v8.059l37.605-.075zM81.48 97.216v11.395H58.66V91.519h22.82zM46.94 43.05H12.414v19.924H46.94z" fill="#C9C9C9"/><path d="M81.48 43.05H46.936v19.924h34.546z" fill="#979797"/><path d="M46.94 68.69H12.414v5.698H46.94z" fill="#C9C9C9"/><path d="M81.48 68.69H46.936v5.698h34.546zm0 11.396H46.936v5.697h34.546z" fill="#979797"/><path d="M46.94 80.086H12.414v5.697H46.94zm-11.876 22.828V91.5h-22.65v17.112h22.65z" fill="#C9C9C9"/><path d="M58.66 97.216v11.396h22.821V91.5h-22.82z" fill="#979797"/><path d="M46.94 114.328H12.414v5.697H46.94z" fill="#C9C9C9"/><path d="M81.48 114.328H46.936v5.697h34.546z" fill="#979797"/><path d="m46.458 140.661.038 10.683-3.896-6.916-.038-16.343 4.542-.019.019 12.576z" fill="#fff"/><path d="m47.843 151.325-.038-10.664-.684-.019-.02-12.576h4.542l.057 16.324z" fill="#9F928D"/><path d="m47.826 142.441.02 8.884-.685.675-.646-.656-.019-8.903c-.817-.281-1.406-1.03-1.406-1.93 0-1.125.93-2.024 2.052-2.043 1.14 0 2.071.918 2.071 2.024 0 .9-.589 1.668-1.387 1.949" fill="#000"/><path d="m46.952 48.542-.095-42.077 9.064-.018v3.58h.02l.018 3.11.057 35.368z" fill="#001C6C"/><path d="m37.872 48.542-.076-35.385-.019-3.093.02-3.56 9.063-.038.095 42.076zm9.088 7.754-7.468.014.145 71.783 7.467-.015z" fill="#183A9B"/><path d="m54.218 56.296-7.24.014.147 71.764 7.24-.014z" fill="#001C6C"/><path d="m49.303 6.466.057 35.61c0 1.331-1.083 2.418-2.451 2.418a2.437 2.437 0 0 1-2.451-2.399l-.076-35.629-6.632.019C37.731 2.924 40.657.019 44.268.019L46.814 0h2.527c3.61 0 6.537 2.886 6.556 6.429z" fill="#fff"/><path d="m54.3 96.067-7.259.018.008 3.113 7.259-.019z" fill="#C9C9C9"/><path d="m47.044 96.066-7.468.018.008 3.113 7.467-.018z" fill="#fff"/><path d="m56.036 56.283-9.064.02-.019-7.76 9.064-.038z" fill="#C9C9C9"/><path d="m46.963 48.534-9.102.02.017 7.759 9.102-.02z" fill="#fff"/></svg>