<svg width="114" height="152" viewBox="0 0 114 152" fill="none" xmlns="http://www.w3.org/2000/svg"><path d="M81.283 136.314h-16.12c-1.703 0-2.833-.85-2.435-2.506 1.006-4.18 4.162-12.674 6.522-18.692a8.9 8.9 0 0 1 3.237-4.062l16.646-11.462c1.433-.987 3.447-1.394 4.53-.031 1.453 1.829 1.225 4.337-.17 6.211-4.75 6.384-16.175 12.777-12.879 14.092 3.838 1.53 13.818-9.947 18.04-14.921 2.052-2.416 1.848-4.673.97-6.358-.812-1.557-1.148-3.591-.013-4.931l5.489-6.485a4.263 4.263 0 0 1 7.332 3.99l-8.697 28.694a15 15 0 0 1-6.374 8.35l-10.225 6.425a11 11 0 0 1-5.853 1.686" fill="#5A81F2"/><path d="M61.418 141.757a2 2 0 0 1 2-2h18.263a2 2 0 0 1 2 2V150a2 2 0 0 1-2 2H63.418a2 2 0 0 1-2-2z" fill="#FF693B"/><path d="M31.957 136.314h16.12c1.703 0 2.833-.85 2.435-2.506-1.005-4.18-4.161-12.674-6.522-18.692a8.9 8.9 0 0 0-3.237-4.062L24.108 99.592c-1.434-.987-3.447-1.394-4.53-.031-1.453 1.829-1.226 4.337.169 6.211 4.75 6.384 16.176 12.777 12.88 14.092-3.84 1.53-13.819-9.947-18.041-14.921-2.052-2.416-1.847-4.673-.97-6.358.812-1.557 1.148-3.591.013-4.931l-5.49-6.485a4.262 4.262 0 0 0-7.33 3.99l8.696 28.694a15 15 0 0 0 6.374 8.35l10.226 6.425a11 11 0 0 0 5.852 1.686" fill="#5A81F2"/><path d="M27.94 141.281a2 2 0 0 1 2-2h18.262a2 2 0 0 1 2 2v8.242a2 2 0 0 1-2 2H29.94a2 2 0 0 1-2-2z" fill="#FF693B"/><path d="M55.33 2.115a2 2 0 0 1 2.953 0l7.993 8.744a2 2 0 0 0 2.082.557l11.31-3.59a2 2 0 0 1 2.558 1.478l2.533 11.544a2 2 0 0 0 1.528 1.526l11.585 2.525a2 2 0 0 1 1.48 2.563l-3.595 11.25a2 2 0 0 0 .56 2.09l8.759 7.952a2 2 0 0 1 0 2.962l-8.758 7.952a2 2 0 0 0-.56 2.09l3.594 11.25a2 2 0 0 1-1.48 2.563l-11.585 2.525a2 2 0 0 0-1.528 1.526l-2.533 11.544a2 2 0 0 1-2.558 1.478l-11.31-3.59a2 2 0 0 0-2.082.557l-7.993 8.744a2 2 0 0 1-2.952 0l-7.993-8.744a2 2 0 0 0-2.081-.557l-11.31 3.59a2 2 0 0 1-2.56-1.478l-2.532-11.544a2 2 0 0 0-1.528-1.526l-11.586-2.525a2 2 0 0 1-1.479-2.563l3.595-11.25a2 2 0 0 0-.56-2.09l-8.759-7.953a2 2 0 0 1 0-2.96l8.758-7.954a2 2 0 0 0 .56-2.089l-3.594-11.25a2 2 0 0 1 1.48-2.563l11.585-2.525a2 2 0 0 0 1.528-1.526l2.533-11.544a2 2 0 0 1 2.558-1.478l11.31 3.59a2 2 0 0 0 2.082-.557z" fill="#fff"/><ellipse cx="56.804" cy="50.235" rx="29.939" ry="29.841" fill="#183A9B"/><path d="M51.394 44.372 40.29 59.744a1 1 0 0 0 .81 1.586h31.39a1 1 0 0 0 .808-1.59l-6.86-9.401a2 2 0 0 0-2.813-.423l-1.408 1.053a2 2 0 0 1-2.781-.38l-4.837-6.268a2 2 0 0 0-3.205.05" fill="#fff"/><ellipse cx="64.092" cy="41.818" rx="3.071" ry="3.061" fill="#fff"/></svg>