<svg width="185" height="169" viewBox="0 0 185 169" fill="none" xmlns="http://www.w3.org/2000/svg"><path d="M171.52 81.489H14.074v75.765H171.52z" fill="#638BFF"/><path d="M165.308 87.234H20.726v16.413h144.582zM20.726 127.131v14.104H72.92v-14.104zm92.389 0v14.104h52.194v-14.104z" fill="#183A9B"/><path d="M171.505 81.489H14.059v-6.05c0-3.419 2.848-6.193 6.358-6.193h144.729c3.51 0 6.359 2.774 6.359 6.193z" fill="#638BFF"/><path d="m77.973 127.435-8.344-7.339-8.344 7.339h3.786v37.05c0 2.452 2.04 4.439 4.558 4.439s4.558-1.987 4.558-4.439v-37.05zm66.619 21.138-8.344-7.338-8.344 7.338h3.786v15.912c0 2.452 2.04 4.439 4.558 4.439s4.558-1.987 4.558-4.439v-15.912zM58.459 159.42l-8.344-7.338-8.343 7.338h3.785v5.065c0 2.453 2.04 4.439 4.558 4.439s4.558-1.986 4.558-4.439v-5.065zm67.594-48.434-8.344-7.338-8.344 7.338h3.786v53.5c0 2.452 2.04 4.439 4.558 4.439s4.558-1.987 4.558-4.439v-53.5z" fill="#B32A00"/><path d="M94.846 37.082h-4.135V18.503c0-1.11.919-2.005 2.058-2.005 1.14 0 2.059.895 2.059 2.005v18.58z" fill="#F4A82D"/><path d="M83.136 31.265a.84.84 0 0 1-1.011-.573l-1.746-6.336c-.11-.43.147-.86.588-.985a.84.84 0 0 1 1.01.573l1.747 6.336a.806.806 0 0 1-.588.985m-16.704 9.397a.85.85 0 0 1-1.158 0l-4.778-4.654a.795.795 0 0 1 0-1.128.85.85 0 0 1 1.158 0l4.778 4.654a.795.795 0 0 1 0 1.128m-9.649 16.27c-.11.43-.57.68-1.011.573l-6.506-1.7a.806.806 0 0 1-.588-.985c.11-.43.57-.68 1.01-.573l6.506 1.7c.442.126.699.555.589.985m0 18.794c.11.43-.147.859-.589.984l-6.505 1.7a.84.84 0 0 1-1.011-.572c-.11-.43.147-.86.588-.985l6.506-1.7c.44-.108.9.143 1.01.572m9.65 16.271a.796.796 0 0 1 0 1.127l-4.778 4.654a.85.85 0 0 1-1.158 0 .795.795 0 0 1 0-1.128l4.778-4.653a.85.85 0 0 1 1.158 0m52.712 0a.85.85 0 0 1 1.158 0l4.779 4.653a.796.796 0 0 1 0 1.128.85.85 0 0 1-1.158 0l-4.779-4.654a.796.796 0 0 1 0-1.127m9.645-16.27c.11-.43.57-.68 1.011-.573l6.506 1.7a.806.806 0 0 1 .588.985c-.11.43-.57.68-1.011.572l-6.506-1.7c-.441-.125-.698-.555-.588-.984m0-18.794a.813.813 0 0 1 .588-.984l6.506-1.7a.84.84 0 0 1 1.011.572c.11.43-.147.86-.588.984l-6.506 1.7c-.441.108-.901-.142-1.011-.572m-9.645-16.27a.796.796 0 0 1 0-1.128l4.779-4.654a.85.85 0 0 1 1.158 0 .796.796 0 0 1 0 1.128l-4.779 4.654a.85.85 0 0 1-1.158 0m-16.712-9.397a.806.806 0 0 1-.588-.985l1.746-6.336c.11-.43.569-.68 1.011-.572a.806.806 0 0 1 .588.984l-1.746 6.336a.826.826 0 0 1-1.011.573" fill="#E0F3FF"/><path d="m79.553 39.982-3.584 2.004-9.538-16.073a1.99 1.99 0 0 1 .753-2.756c.993-.555 2.26-.233 2.83.733zm-11.74 9.988-2.059 3.49-16.503-9.29a1.99 1.99 0 0 1-.754-2.756c.57-.967 1.838-1.289 2.83-.734zm-5.055 14.354v4.027H43.681c-1.14 0-2.058-.895-2.058-2.004 0-1.11.919-2.005 2.058-2.005h19.077zm2.98 14.892 2.058 3.49-16.504 9.29c-.992.555-2.26.233-2.83-.734a1.99 1.99 0 0 1 .753-2.757zm10.231 11.437 3.584 2.004-9.538 16.074c-.57.966-1.838 1.288-2.83.733a1.987 1.987 0 0 1-.754-2.756zm30.047 2.023 3.583-2.005 9.539 16.073a1.99 1.99 0 0 1-.754 2.757c-.992.555-2.26.232-2.83-.734zm11.746-9.97 2.058-3.49 16.504 9.29a1.99 1.99 0 0 1 .753 2.756c-.57.966-1.838 1.289-2.83.734zm5.054-14.355v-4.027h19.077c1.139 0 2.058.895 2.058 2.005s-.919 2.004-2.058 2.004h-19.077zm-2.974-14.909-2.059-3.49 16.504-9.29c.992-.555 2.26-.233 2.83.734.57.966.239 2.201-.753 2.756zm-10.243-11.438L106.016 40l9.538-16.073c.57-.966 1.838-1.288 2.83-.733a1.99 1.99 0 0 1 .754 2.756z" fill="#F4A82D"/><path d="M121.483 94.288c15.854-15.44 15.854-40.475 0-55.915s-41.559-15.44-57.413 0-15.854 40.474 0 55.915c15.854 15.44 41.559 15.44 57.413 0" fill="#E0F3FF"/><path d="m81.768 51.186-24.645 3.49L74.968 71.61 70.76 95.504l22.035-11.277V29.44z" fill="#F4D34A"/><path d="m128.467 54.677-24.645-3.49-11.027-21.748v54.788l22.035 11.277-4.208-23.895z" fill="#F4A82D"/><path d="M92.794 168.924c-7.444 0-13.472-5.87-13.472-13.119V95.522h13.471z" fill="#FF693B"/><path d="M114.827 95.54H70.756L92.79 76.12z" fill="#FF693B"/><path d="M92.794 95.504H79.322v5.369h13.471v68.051c7.444 0 13.472-5.87 13.472-13.119V95.522H92.793z" fill="#B32A00"/></svg>